<svg xmlns="http://www.w3.org/2000/svg" viewBox="0 0 1684.25 1191.55"><defs><style>.cls-1{fill:#78716C;}</style></defs><title>woodgrain-pattern</title><g id="Layer_2" data-name="Layer 2"><g id="Layer_1-2" data-name="Layer 1"><path class="cls-1" d="M3,822.34c-.34-13.42-1.09-26.85-2.14-40.28v124.8C2.68,878.72,3.68,850.45,3,822.34Z"/><path class="cls-1" d="M29,.49c-1,43.45-13.25,86.19-28.22,130V143C17.07,96.37,31.84,48.71,33,.49Z"/><path class="cls-1" d="M80.19,909.58c3-22.41,6-45.59,8.32-68.49,7.67-76.71,7.12-155,6.59-230.7C94.54,529.58,94,446,75.4,365.66c-2.75-11.91-5.94-24-9-35.6C58.27,299.54,49.9,268,48.86,236.14,48,208.63,52.52,180.86,56.93,154c2.43-14.75,4.93-30,6.52-45.09C67.23,73.07,62.22,36.26,56,.49H51.87c6.24,35.62,11.28,72.29,7.52,108-1.58,15-4.08,30.17-6.49,44.85-4.45,27.06-9,55-8.13,82.94,1.06,32.32,9.49,64.1,17.65,94.84,3.08,11.61,6.26,23.62,9,35.47C89.87,446.5,90.45,529.83,91,610.42c.53,75.6,1.08,153.77-6.57,230.26v.06c2-37.12,2.77-74,3-104.77.64-78.23-1.89-164.24-6.94-236-6.15-87.24-17.6-141.63-26.8-185.33-5.33-25.32-9.54-45.33-11.32-65.24-3.47-38.89.86-73.42,4.68-103.88,1.47-11.7,2.86-22.75,3.64-33,2-25.52-.57-38.11-2.41-47.3a73.65,73.65,0,0,1-1.66-11c-.17-3.46-.19-7.34-.22-11.44-.08-11.15-.15-21.68-3-25.72a2.51,2.51,0,0,0-2.78-1.07c-1.62.48-3.83,1.12-7.3,33.39-2.06,19.12-3.9,43.88-5,67.92C26.65,152.11,15,172,4.7,189.49c-1.61,2.75-3.19,5.44-4.7,8.14v8.51c2.41-4.86,5.23-9.66,8.14-14.63,10.52-17.91,22.45-38.22,24.15-74,2.16-45.38,6.2-83.82,9-95,1,4.82,1.08,13.24,1.13,20.32,0,4,.06,8.06.23,11.6a76.31,76.31,0,0,0,1.73,11.62c1.89,9.46,4.25,21.24,2.34,46.2-.77,10.11-2.15,21.11-3.62,32.76-3.84,30.67-8.21,65.42-4.7,104.74,1.8,20.15,6.25,41.26,11.4,65.71C59,359.08,70.4,413.31,76.53,500.28c13.16,186.85,6.63,367.46-6.62,449.3l1,.16c-1.59,13.18-3,26.42-4.21,39.59A923.66,923.66,0,0,0,71,1191h4.13a919.13,919.13,0,0,1-4.38-201.35C73.13,962.92,76.72,935.81,80.19,909.58Z"/><path class="cls-1" d="M135.51,927.23c-4.06-27.18-8.26-55.28-10.84-83.07-4.14-44.56-4.3-90.08-4.45-134.11l-.86-244.95c-.14-41.22-.29-83.84,3.85-125.52a613.15,613.15,0,0,1,26.71-127.89c4.37-13.5,9.3-27.11,14.07-40.27,9.92-27.38,20.17-55.7,26-84.78C196.25,55.52,198.52.49,198.52.49h-4.05S192.2,54.9,186,85.84c-5.77,28.77-16,56.95-25.85,84.19-4.77,13.19-9.72,26.83-14.11,40.4a617.26,617.26,0,0,0-26.89,128.75c-4.16,41.89-4,84.61-3.87,125.93l.86,245c.15,44.11.31,89.73,4.47,134.47,2.59,27.9,6.8,56.06,10.86,83.29,1.38,9.23,2.76,18.45,4.08,27.68A2025.83,2025.83,0,0,1,155.67,1191h4.09a2029,2029,0,0,0-20.17-236.1C138.27,945.69,136.89,936.46,135.51,927.23Z"/><path class="cls-1" d="M452.63,996.76c-5.1-14.6-10.37-29.7-16.22-46-20.12-56.1-39.94-138.94-35.21-203.21,3.64-49.4,10.74-94.38,18.26-142,4.6-29.09,9.35-59.18,13.21-90.25,11.67-93.9-.77-189.72-12.8-282.38C410,156.63,373.09,78.11,376.35.49h-4.09C369,78.39,405.9,157,415.82,233.45c12,92.41,24.4,188,12.79,281.35-3.85,31-8.6,61.05-13.19,90.11-7.53,47.72-14.65,92.78-18.3,142.35-4.78,64.91,15.18,148.4,35.44,204.89,5.84,16.28,11.11,31.37,16.21,46,14.68,42,27.36,78.33,46.77,123.67A427.48,427.48,0,0,1,518.86,1191h4.19a429.1,429.1,0,0,0-23.75-70.87C479.94,1075,467.28,1038.72,452.63,996.76Z"/><path class="cls-1" d="M495.65,966.58C483.53,937.88,471,908.21,462,878c-30.69-103.43-16.55-208.5-2.88-310.11,8.4-62.46,17.09-127,15.47-191.06-1.47-58.35-13-117-24.23-173.68C437.29,136.8,419.32,68.46,422.23.49h-4.1C415.24,68.87,433.25,137.4,446.39,204c11.15,56.54,22.69,115,24.16,173,1.61,63.69-7.06,128.11-15.44,190.41-13.73,102-27.93,207.55,3,311.82,9,30.4,21.6,60.18,33.77,89,17.39,41.16,35.38,83.72,42.93,128.28,5.39,31.81,9.37,62.94,12.07,94.59H551c-2.71-31.88-6.72-63.23-12.15-95.27C531.22,1050.74,513.14,1008,495.65,966.58Z"/><path class="cls-1" d="M580.26,1101.5l-66-194.3C503,874.1,491.36,839.87,487.5,804.54c-4.25-38.91,1-78.65,6.16-117.08,1.87-14,3.81-28.55,5.25-42.84,9.77-96.56-1.54-195.58-12.47-291.34C473.11,236.53,453.1,116.22,445.17.23H441C451.54,162.15,469.05,237,482.38,353.75c10.91,95.54,22.19,194.34,12.46,290.46-1.44,14.22-3.36,28.71-5.23,42.71-5.15,38.68-10.48,78.67-6.18,118.06,3.91,35.78,15.62,70.23,26.94,103.54l66,194.29c7.69,22.64,15.65,46,19.12,70.08.88,6,.44,12.09.8,18.15h4.09c-.36-6.25.06-12.5-.84-18.74C596,1147.9,588,1124.31,580.26,1101.5Z"/><path class="cls-1" d="M609.9,1046.44c1.55-68.22,3.16-138.76-10-206.28-4.47-23-10.72-45.87-16.76-68-6.22-22.82-12.65-46.43-17.12-70-8.11-42.76-10.09-87-12-129.81L548,438c-2-43.87-4-89.23,1.92-133.46,4.61-34.44,14.11-68.58,23.3-101.59,5.14-18.46,10.45-37.56,14.87-56.54C601.76,87.74,614.08,46,613.24.23H609C610.4,42.68,597.74,87,584.12,145.52c-4.39,18.89-9.69,37.94-14.82,56.37C560.07,235,550.53,269.31,545.89,304c-6,44.59-3.92,90.14-1.95,134.18l6,134.27c1.92,42.94,3.9,87.34,12.06,130.39,4.5,23.75,11,47.44,17.2,70.34,6,22.08,12.25,44.92,16.69,67.73C609,908,607.36,978.35,605.81,1046.35c-1.09,47.85-.65,96.62,3.37,144.69h4.11C609.25,1143.05,608.8,1094.28,609.9,1046.44Z"/><path class="cls-1" d="M1115.94,1119.72c-3.61-18.92-6.45-38.1-9.2-56.65l-1.06-7.19c-.72-4.86-1.51-9.66-2.29-14.45-2.6-15.91-5.06-31-5.18-47.06-.14-19.47,1.84-39,3.89-57.3l.42-3.73c1.65-14.63,3.35-29.75,3.06-44.14-.34-16.66-5.36-32.33-10.21-47.48-2.74-8.54-5.57-17.37-7.5-26.23-4.17-19.08-9.41-38.19-14.47-56.68-6.21-22.65-12.63-46.07-17.09-69.52-8.11-42.57-10.08-86.61-12-129.2l-6-133.65c-2-43.66-4-88.8,1.92-132.83,4.6-34.28,14.1-68.26,23.29-101.12,5.14-18.37,10.46-37.38,14.87-56.27,12.59-53.85-8.89-97.75-17-135.73h-4.2c8.24,37.57,29.8,81.14,17.26,134.8-4.4,18.81-9.7,37.77-14.83,56.1-9.22,33-18.76,67.12-23.41,101.68-6,44.39-3.92,89.72-2,133.56l6,133.64c1.92,42.73,3.9,86.92,12.06,129.79,4.5,23.6,10.94,47.1,17.16,69.83,5.06,18.44,10.28,37.5,14.42,56.47,2,9.06,4.84,18,7.6,26.61,4.76,14.87,9.69,30.25,10,46.31.29,14.12-1.4,29.11-3,43.6l-.42,3.73c-2.06,18.44-4.06,38.1-3.92,57.79.12,16.43,2.61,31.61,5.23,47.69.78,4.77,1.56,9.55,2.28,14.4l1.07,7.18c2.75,18.59,5.59,37.81,9.23,56.82,4,21,8.25,42.14,12.62,62.94.53,2.52,1,5.06,1.32,7.61H1130c-.39-2.82-.85-5.64-1.44-8.45C1124.19,1161.82,1119.94,1140.67,1115.94,1119.72Z"/><path class="cls-1" d="M1140.07,1059.73c-3.6-15.34-7.32-31.21-9-47.07-1.79-16.68-1.38-33.77-1-50.29.22-9.39.45-19.09.28-28.64-.46-25.93-3.79-52.61-6.88-75.59-1.3-9.71-3.67-19.17-6-28.31-1.78-7.14-3.63-14.52-4.91-21.86q-1.27-7.25-2.51-14.53c-4.07-23.9-8.29-48.61-15.16-72.15-39.84-136.62-44.13-219.87-39-366.29.65-18.4,3.85-55.67,7.4-72.22,1.34-6.23,2.59-13.33,3.92-20.86,2.66-15,5.67-32,9.88-44.31,18.57-54.07,12.7-133,8.2-217.12h-4.09c4.51,83.55,10.48,162-8,215.79-4.32,12.57-7.36,29.77-10,44.93-1.33,7.49-2.58,14.56-3.9,20.72-3.59,16.75-6.83,54.38-7.48,72.92-5.15,146.89-.85,230.43,39.16,367.58,6.8,23.32,11,47.92,15.06,71.7q1.23,7.29,2.5,14.55c1.31,7.48,3.18,14.93,5,22.14a257.29,257.29,0,0,1,5.87,27.87c3.07,22.86,6.38,49.4,6.84,75.11.17,9.47,0,19.13-.27,28.47-.39,16.65-.8,33.88,1,50.82,1.72,16.11,5.47,32.11,9.1,47.58,2,8.55,4.08,17.39,5.78,26.12,6.65,34.22,8.13,69.65,9.07,104.25H1155c-.94-34.8-2.43-70.46-9.15-105C1144.17,1077.2,1142.09,1068.32,1140.07,1059.73Z"/><path class="cls-1" d="M887.23,912.65a15.81,15.81,0,0,0-2.05,1.36c-5.27,4.13-9.86,12.75-14,26.36a133.45,133.45,0,0,0-5.63,37.49c-.06,6.55.35,13.21.74,18.94.57,8.43,1.27,16.58,3.56,23.7,3.71,11.55,10.85,18.12,16.67,22.54,6,4.56,10.87,6.68,15.4,6.68a13.12,13.12,0,0,0,8-2.69c5.82-4.32,9.55-13.57,12.71-22.94,3.51-10.42,7.1-22.83,7-35.87-.09-11.67-3-23.67-8.92-36.68a126.6,126.6,0,0,0-13.17-22.74,96.58,96.58,0,0,0-7.83-9.34c-.51-.53-1.07-1.19-1.65-1.88-2.16-2.54-4.6-5.41-7.32-5.74A5.8,5.8,0,0,0,887.23,912.65Zm7.64,7.58c.65.76,1.26,1.48,1.82,2.06a92.37,92.37,0,0,1,7.49,8.94,122.4,122.4,0,0,1,12.74,22c5.67,12.48,8.47,23.94,8.55,35,.1,12.4-3.2,23.93-6.78,34.54-2.94,8.73-6.35,17.31-11.26,21a9,9,0,0,1-5.54,1.88c-3.54,0-7.77-1.91-12.93-5.84-5.33-4.07-11.89-10.07-15.25-20.54-2.14-6.68-2.82-14.56-3.37-22.72-.38-5.66-.79-12.23-.74-18.63a129.21,129.21,0,0,1,5.46-36.33c3.86-12.61,8.11-20.8,12.64-24.34a10.13,10.13,0,0,1,1.49-1,2.13,2.13,0,0,1,1-.35h0C891.31,916,893.63,918.76,894.87,920.23Z"/><path class="cls-1" d="M874.05,988a53.23,53.23,0,0,0,1.19,11c1.14,4.54,3.19,7.88,5.55,11.46,3.52,5.32,7,10.35,11.28,13.34a13.12,13.12,0,0,0,7.48,2.59,10.57,10.57,0,0,0,7.79-3.53,26.38,26.38,0,0,0,4.84-8.32c7.23-18.05,5.06-49.38-4.64-67.06-3.9-7.1-8.78-11.37-14.12-12.37A11.69,11.69,0,0,0,884.1,937C873.83,944.38,873.44,969.64,874.05,988Zm12.43-47.66a7.2,7.2,0,0,1,4.33-1.37,9.47,9.47,0,0,1,1.86.19c5.17,1,9,6.14,11.28,10.32,9,16.48,11.16,46.78,4.43,63.57a22.6,22.6,0,0,1-4,7,6.54,6.54,0,0,1-4.82,2.24,9.12,9.12,0,0,1-5.13-1.84c-3.67-2.58-6.93-7.27-10.22-12.25-2.15-3.27-4-6.28-5-10.2a50.56,50.56,0,0,1-1.08-10.17C877.25,960.94,880.06,945,886.48,940.34Z"/><path class="cls-1" d="M890.86,1004.54c2.06,1.79,4,2.66,5.84,2.66a5.38,5.38,0,0,0,1.27-.14c5.27-1.18,7.89-9.29,8.59-16.48,1.09-11.16-4.72-30.14-11.5-37.62-2.13-2.35-4.32-3.54-6.5-3.54-1.44,0-3.59.55-5.6,3.19a22.7,22.7,0,0,0-3.08,6.23C875.26,972.37,883.69,998.29,890.86,1004.54Zm-7.11-44.38a18,18,0,0,1,2.47-5.07,3.23,3.23,0,0,1,2.34-1.58c1,0,2.18.78,3.47,2.2,6,6.55,11.42,24.6,10.46,34.48-.65,6.68-3,12.35-5.42,12.89a2.21,2.21,0,0,1-.37,0c-.57,0-1.57-.29-3.15-1.67C887.3,996,879.78,971.78,883.75,960.16Z"/><path class="cls-1" d="M895.65,993.15c1.94-.32,3.27-2.25,4.05-5.9a37.36,37.36,0,0,0,.62-12.56c-.6-4.58-2.23-8.5-4.46-10.75a9,9,0,0,0-6.19-2.68,6.34,6.34,0,0,0-5.32,2.69c-1.42,2-1.86,4.84-1.33,8.45a29.5,29.5,0,0,0,2.3,7.48,58.23,58.23,0,0,0,5.95,10.66c.62.86,1.9,2.65,3.87,2.65Zm-1-5a53.74,53.74,0,0,1-5.53-9.91,25.38,25.38,0,0,1-2-6.45c-.37-2.46-.15-4.41.61-5.48a2.29,2.29,0,0,1,2-1,4.87,4.87,0,0,1,3.29,1.47c1.59,1.6,2.83,4.74,3.31,8.41a33.26,33.26,0,0,1-.56,11.16,11.5,11.5,0,0,1-.71,2.29A4.57,4.57,0,0,1,894.6,988.16Z"/><path class="cls-1" d="M675.78,1049c.38-8.36,1-16.86,1.68-25.08.74-9.39,1.49-19.1,1.84-28.69.94-26.32-3.21-52.21-7.23-77.25-3.38-21.1-6.88-42.93-7.22-64.62-.54-34.2-7.93-65.78-15.76-99.21q-2.25-9.6-4.47-19.32c-18.66-82.7-39.12-180.77-49.36-281.1-5-48.52-8.5-105.58,2.75-160.86,4.56-22.39,11.58-44.63,18.37-66.13,7-22.3,14.33-45.36,18.92-68.72C645.68,105.11,670.41,50.23,665.82.23h-4.1c4.58,49.82-20.13,104.51-30.43,157-4.55,23.14-11.8,46.09-18.81,68.28-6.82,21.6-13.88,43.94-18.48,66.54-10.59,52.08-8.2,105.58-3.78,152.17-14.58-60.91-24.72-127.69-3.53-186.61C608.77,196.22,634.68,57.72,631,0h-2l-2,.13c3.74,57.22-22.06,195-44,256.12-24.56,68.28-7.85,146.41,9.75,214.28l.27-.08c10.72,94.83,30,187,47.68,265.28,1.47,6.5,3,12.95,4.48,19.35,7.77,33.21,15.12,64.58,15.65,98.34.34,22,3.86,44,7.27,65.21,4,24.85,8.11,50.54,7.18,76.45-.34,9.51-1.09,19.17-1.82,28.52-.65,8.25-1.31,16.79-1.7,25.21-2.2,48.66,4.83,96.76,15.85,142.23h4.21C680.67,1145.6,673.58,1097.54,675.78,1049Z"/><path class="cls-1" d="M695.64,1084.2l0-4.89c.52-67.29-1.45-135.45-5.86-202.58l-.45-6.87c-1.87-29.14-3.8-59.27-13.54-87.65-7.4-21.54-9.27-46.34-11.08-70.32-.74-9.76-1.43-19-2.48-28.06-1.8-15.59-3.65-31.71-3.9-47.61C657.61,587,668.5,538.42,679,491.41q1.73-7.73,3.44-15.45c14-63.1,22.29-119.37,25.47-172,3.93-65-.08-126.5-11.91-182.75C692.43,104,687,87.73,681.82,72c-7.9-23.85,11.24-46.81,9.93-71.48h-4.12c1.29,25.22-17.71,48.53-9.69,72.76C683.12,88.91,688.48,105.1,692,122c11.76,55.89,15.74,117,11.83,181.66-3.16,52.43-11.47,108.49-25.38,171.38q-1.71,7.73-3.44,15.44c-10.59,47.24-21.54,96.09-20.77,145.77.25,16.09,2.12,32.32,3.93,48,1,9,1.73,18.17,2.46,27.89,1.83,24.24,3.72,49.3,11.29,71.34,9.57,27.86,11.39,56.39,13.33,86.58l.45,6.88c4.4,67,6.37,135.09,5.85,202.28l0,4.89c-.3,34.83-2.14,62.25,9.16,95.6.3.89,3,6.76,3.19,11.27h4c.27-3.23-2.37-9.65-2.82-11C694,1147.37,695.34,1118.7,695.64,1084.2Z"/><path class="cls-1" d="M664.43,179.71c-2.32.37-4.38,2-6,4.75-3.89,6.72-5.47,15.22-7,23.44-.58,3.13-1.13,6.1-1.8,8.85L625.14,319c-4.53,18.86-9.21,38.37-10.84,58.12-4.59,55.63,6.76,174.75,15.49,184.23a3.08,3.08,0,0,0,2.31,1.11,3,3,0,0,0,2.4-1.29c.54-.71.76-1.51,4.62-19.93,6.14-29.3,18.92-90.27,31.12-126.74,8-24,5.35-49.88,2.76-74.89-1.54-14.77-3.12-30-2.47-44.72.46-10.39,1.53-20.93,2.57-31.12.84-8.3,1.71-16.88,2.25-25.37a209.06,209.06,0,0,0,.14-29,135.55,135.55,0,0,0-1.8-14.29,26.86,26.86,0,0,1-.31-3.6c-.11-2.62-.24-5.59-1.61-8a7.85,7.85,0,0,0-4.91-3.72A6.23,6.23,0,0,0,664.43,179.71Zm3.8,5.87c.86,1.5,1,3.83,1.07,6.09a29.92,29.92,0,0,0,.37,4.16,129.88,129.88,0,0,1,1.74,13.85,205.68,205.68,0,0,1-.14,28.45c-.53,8.41-1.4,17-2.24,25.22-1,10.25-2.12,20.85-2.58,31.35-.67,15,.93,30.41,2.48,45.32,2.55,24.58,5.19,50-2.57,73.18-12.27,36.69-24.61,95.56-31.24,127.19-1.42,6.73-2.69,12.81-3.45,16.12-6.52-16.93-17.89-123.34-13.3-179.06,1.61-19.44,6.25-38.79,10.74-57.51l24.54-102.23c.69-2.86,1.25-5.88,1.84-9.07,1.46-7.88,3-16,6.51-22.13.54-.93,1.66-2.53,3.07-2.76l.33,0a2.48,2.48,0,0,1,.54.06A3.79,3.79,0,0,1,668.23,185.58Z"/><path class="cls-1" d="M653.71,365.07a70.26,70.26,0,0,1-2.57-11.25,77.8,77.8,0,0,1-.26-13.63c.4-6.49,1.42-13.07,2.41-19.42.65-4.23,1.33-8.61,1.83-12.95a103.79,103.79,0,0,0,.77-17.06c0-.83,0-2,0-3.24.11-2.94.24-6.29-.65-8.45A4.42,4.42,0,0,0,650,276.4l-.61.22-.38.52c-6.82,9.51-8.74,22.9-10.43,34.72-.49,3.37-.94,6.55-1.49,9.55-3.61,19.76-6.15,36.3-8,52a474.07,474.07,0,0,0-3.38,52.3c0,.74,0,1.91-.1,3.4-.54,16.34-.41,33.76,4.73,39.07a5.53,5.53,0,0,0,4,1.8,5.35,5.35,0,0,0,1.11-.11c2.71-.52,4.64-4.25,7.71-23.16.17-1,.29-1.78.38-2.24a105,105,0,0,1,4.45-15c1.3-3.68,2.64-7.48,3.64-11.3,3.77-14.34,5.37-27,4.89-38.65C656.37,374.41,655,369.66,653.71,365.07Zm-6,52.09c-1,3.66-2.28,7.38-3.54,11a107,107,0,0,0-4.62,15.62c-.09.47-.22,1.29-.39,2.34-2.32,14.27-3.84,18.72-4.74,19.83h-.05a1.45,1.45,0,0,1-1.09-.56c-4.62-4.78-3.84-28.35-3.58-36.1,0-1.53.09-2.74.1-3.5a468,468,0,0,1,3.35-51.85c1.82-15.66,4.35-32.11,7.94-51.78.56-3.08,1-6.3,1.51-9.71,1.56-10.84,3.31-23.06,8.9-31.72.5,1.41.39,4.43.3,6.65-.05,1.33-.09,2.59,0,3.6a96.75,96.75,0,0,1-.74,16.38c-.49,4.27-1.16,8.6-1.81,12.79-1,6.45-2,13.12-2.45,19.8a81.13,81.13,0,0,0,.28,14.35,75.11,75.11,0,0,0,2.69,11.9c1.31,4.57,2.54,8.88,2.73,13.53C653,391,651.42,403.22,647.75,417.16Z"/><path class="cls-1" d="M792.75,979.79c2.54-42.76,5.16-87-2.56-129.82-2.33-12.92-5.63-25.83-8.82-38.32-4.16-16.32-8.47-33.19-10.61-50.1-3.27-25.85-1.59-52.34,0-78,4.18-65.9,8.5-134.06,16.91-200.65,2.38-18.9,5.15-38.13,7.83-56.72,8.46-58.72,17.22-119.45,15.29-179.7-1-31.05-4.81-62.73-8.51-93.37h0c-.31-2.33-.65-4.62-1-6.86-2.28-15.46-4.43-30.07-.15-54.25,10.34-58.48,4.52-75.7.26-88.27-.45-1.33-.87-2.57-1.24-3.78H796c.48,1.68,1,3.34,1.61,5.06,4.12,12.16,9.76,28.82-.41,86.3-4.39,24.81-2.19,39.73.14,55.52.32,2.21.64,4.47,1,6.76h0c3.68,30.55,7.49,62.14,8.48,93,1.91,59.89-6.82,120.44-15.25,179-2.69,18.61-5.46,37.85-7.85,56.79-8.42,66.72-12.75,134.93-16.93,200.9-1.64,25.81-3.34,52.5,0,78.73,2.17,17.17,6.51,34.16,10.71,50.6,3.17,12.42,6.45,25.26,8.75,38,7.64,42.38,5,86.34,2.51,128.86-1.77,30-3.61,60.94-1.89,91.33,2.31,41,11,81,22.3,120.16h4.25c-11.42-39.28-20.16-79.38-22.47-120.39C789.16,1040.5,791,1009.64,792.75,979.79Z"/><path class="cls-1" d="M812.06,1045.19c-1.34-25.06,1.6-50.55,4.44-75.19,2.2-19,4.47-38.63,4.79-58.08.52-32-4.2-64.19-8.77-95.32-1.7-11.59-3.46-23.58-4.92-35.37-13.3-107.39-4.2-217,4.6-322.89,2-24.67,4.17-50.18,9.94-74.63,2.2-9.36,5-18.78,7.7-27.89,4.44-15,9-30.44,11.21-46.23,4-29.26-.27-59.07-4.42-87.9-.2-1.38-.39-2.75-.59-4.12h.06c0-.07-.14-.79-.35-2.05-.21-1.48-.43-3-.64-4.46l-.11,0c-2.69-16.17-9.49-58.64-10.53-81.8q-.44-9.63-.81-18.23C820.94,49.8,819.85,25.1,813.24,0H809.1c6.74,25.05,7.82,49.45,10.56,111.22q.39,8.61.82,18.23c1.07,23.86,8.16,67.85,10.74,83.27.45,3.18.9,6.37,1.36,9.55C836.7,250.82,841,280.34,837,309c-2.13,15.47-6.68,30.8-11.08,45.61-2.72,9.17-5.53,18.64-7.76,28.12-5.84,24.75-8,50.41-10,75.23-8.82,106.15-17.94,215.92-4.59,323.73,1.46,11.84,3.23,23.85,4.93,35.46,4.55,31,9.25,63,8.73,94.67-.32,19.24-2.57,38.78-4.76,57.67-2.86,24.81-5.83,50.47-4.46,75.88,1.74,32.43,10.43,64.09,18.83,94.72l14,50.91H845l-14.27-52C822.41,1108.63,813.78,1077.18,812.06,1045.19Z"/><path class="cls-1" d="M831.76,1037.75c-.18-17.76,1.68-35.79,3.48-53.23,1.37-13.35,2.79-27.16,3.3-40.82,1.31-35-3.3-70.24-7.76-104.36q-1.5-11.42-2.93-22.82A1403.64,1403.64,0,0,1,840.15,394c1.52-8.38,3.12-16.75,4.73-25.12,6-31.33,12.2-63.73,14.1-96.14,1.81-30.78-.23-62-2.21-92.26-.82-12.62-1.67-25.66-2.23-38.48-2-47.1-11.91-95.15-9.78-141.8h-4.1c-2.12,46.68,7.74,94.77,9.8,142,.56,12.87,1.41,25.94,2.24,38.58,2,30.1,4,61.22,2.2,91.75-1.89,32.14-8.07,64.41-14,95.61-1.6,8.38-3.21,16.77-4.73,25.16A1407.53,1407.53,0,0,0,823.8,817c.93,7.62,1.93,15.23,2.92,22.85,4.44,34,9,69,7.74,103.68-.51,13.52-1.92,27.26-3.29,40.55-1.81,17.55-3.68,35.7-3.49,53.7.45,43.71,13.06,86.67,24.85,123.5q4.76,14.88,9.79,29.74h4.32q-5.25-15.48-10.22-31C844.73,1123.51,832.21,1080.9,831.76,1037.75Z"/><path class="cls-1" d="M883.29,1089.79c-13-37.45-26.49-76.18-27-116.08-.44-36.49,10-72.44,20.11-107.21,7.73-26.59,15.71-54.08,18.94-81.92,7.12-61.48-8.91-122.8-24.41-182.1-14-53.63-28.52-109.08-25.88-164.53,1.52-32,8.78-63.86,15.79-94.7,6.5-28.59,13.23-58.16,15.44-87.89,2.59-34.77-.87-70.61-4.25-105.28-1.67-21.2-2.91-44-1.53-58.22,2.4-24.9,2-68.88-4.25-91.86h-4.19c5,17.69,7.86,56.2,4.46,91.48-1.4,14.44-.17,37.3,1.5,58.58h-.1l.57,5.9c.64,7.67,1.31,15,1.9,21.5.33,3.65.64,7,.9,10,1.71,22.6,2.57,45.33.91,67.55-2.18,29.42-8.87,58.84-15.34,87.28-7.06,31-14.36,63.09-15.89,95.42-2.67,56.07,11.9,111.83,26,165.75,15.41,58.94,31.34,119.88,24.31,180.6-3.19,27.5-11.13,54.82-18.81,81.25-10.18,35-20.71,71.3-20.26,108.4.49,40.56,14.07,79.61,27.2,117.37,10.53,30.3,21.42,61.62,25.52,93.57.26,2.1.46,4.22.68,6.34h4.11c-.23-2.29-.45-4.58-.74-6.86C904.86,1151.81,893.89,1120.28,883.29,1089.79Z"/><path class="cls-1" d="M926.64,1031.25c7.24-19.12,14.73-38.89,12.91-59.6-1.09-12.42-5.5-24.22-9.77-35.64-1.54-4.09-3.12-8.32-4.51-12.49-13.57-40.6-12.43-84.66-11.33-127.27.46-17.84.93-36.28.33-54.29-1.43-43.19-9.22-86.63-16.76-128.64C887.38,556.86,876.9,498.47,882,440.73c1.87-21,5.83-42.14,9.67-62.58,2.53-13.48,5.14-27.42,7.14-41.24,7.35-50.79,6.84-103,6.34-153.45h-.08c-.08-32.74-.92-56.63-1.61-76-1-29.33-1.66-47,1.43-67,4.9-31.67,5.27-34.84,4.73-40.48h-4c.54,5.46.26,8.06-4.67,39.87-3.15,20.31-2.51,38.16-1.47,67.72.69,19.36,1.53,43.22,1.61,75.91h0c0,.41,0,.82,0,1.23v4.08h0c.46,48.67.69,98.81-6.36,147.52-2,13.73-4.59,27.63-7.11,41.07-3.85,20.53-7.84,41.76-9.72,63-5.18,58.29,5.35,116.95,15.53,173.68,7.51,41.87,15.27,85.16,16.7,128.06.6,17.88.12,36.27-.34,54-1.11,43-2.26,87.39,11.54,128.67,1.42,4.25,3,8.51,4.56,12.64,4.17,11.15,8.49,22.69,9.53,34.56,1.74,19.77-5.26,38.24-12.67,57.79-3.86,10.18-7.84,20.71-10.43,31.36-8.07,33.25-2.58,68.71,2.28,100l4.63,29.88h4.14l-4.73-30.51c-4.8-30.91-10.23-66-2.35-98.4C918.88,1051.72,922.82,1041.31,926.64,1031.25Z"/><path class="cls-1" d="M947,1078.61c3.85-10.56,7.84-21.48,10-32.72,4-20.4,2.11-41.22.3-61.36-8.47-93.88-17.23-191-31.09-285.85q-2.18-14.85-4.45-29.68c-5.54-36.47-11.27-74.19-13.89-111.56-3.52-50.29-1.53-101.54.39-151.1l5.23-134.76h0c0-.13,0-.37,0-.72l1.6-41.2h-.1c1.35-27.06,3.16-48.27,4.66-62.86,6.4-62.39,9.44-114.73,3.51-166.8h-4c4.33,37.51,5.35,80.48-3.47,166.39-2.09,20.36-4.79,53.57-6,97.54l-5.52,142.25c-1.93,49.67-3.93,101-.39,151.55,2.63,37.53,8.37,75.33,13.93,111.89,1.5,9.88,3,19.76,4.44,29.65C936,794,944.79,891.07,953.25,984.9c1.79,19.85,3.65,40.37-.23,60.2-2.14,10.93-6.06,21.7-9.86,32.11-4.56,12.51-9.29,25.45-11,39-2.6,20,1.36,39.92,5.18,59.15l3.12,15.73h4.17l-3.28-16.53c-3.76-18.9-7.65-38.45-5.14-57.82C937.87,1103.64,942.51,1090.91,947,1078.61Z"/><path class="cls-1" d="M1026.7,1092.61q-3.42-12-6.8-23.94c-4.17-14.84-9-32.43-13.38-50.3-16-65.61-25-133.73-33.76-199.61-21.67-163.42-44.08-332.42-27.4-499.51.69-6.87,1.44-13.73,2.19-20.6,2-18,4-36.69,4.79-55.16.66-16.09.38-32.43.1-48.23-.24-13.58-.49-27.57-.12-41.4.43-6.82,1.65-30.66.65-71.61-1.1-45.71-2.71-53.71-8-80.2-.13-.67-.27-1.36-.41-2h-4.08c.2,1,.39,1.92.57,2.84,5.28,26.23,6.87,34.14,8,79.5.78,32.58.17,54.24-.33,65.08h-.21q-.16,4-.25,8.09v.08h0c-.3,13.32-.07,26.72.16,39.75.27,15.75.56,32-.1,48-.76,18.33-2.79,36.91-4.76,54.89-.75,6.87-1.51,13.75-2.2,20.63C924.57,486.41,947,655.64,968.71,819.3c8.75,66,17.79,134.22,33.84,200,4.37,17.93,9.23,35.56,13.41,50.44q3.38,12,6.81,24c4.33,15.14,8.81,30.8,13,46.26,4.43,16.57,8.71,33.6,12.4,51h4.17c-3.74-17.81-8.1-35.2-12.62-52.09C1035.52,1123.45,1031,1107.77,1026.7,1092.61Z"/><path class="cls-1" d="M1011.51,965.61A4527.6,4527.6,0,0,1,964.4,512.12c-2.57-48.36-4.64-99.9.54-151.51,1.32-13.23,3.15-26.65,4.93-39.62,2.37-17.39,4.82-35.36,6.11-53.19,1.4-19.52,1.44-39.39,1.47-58.6,0-11.68,0-23.75.37-35.6C979.43,115.48,951.94,57.2,961.47.49h-4.15c-9.51,56.64,18,114.84,16.41,173-.33,11.91-.35,24-.37,35.71,0,19.14-.07,38.94-1.46,58.31-1.27,17.7-3.72,35.62-6.09,52.94-1.77,13-3.61,26.46-4.94,39.76-5.21,51.9-3.13,103.62-.56,152.14a4536.11,4536.11,0,0,0,47.16,453.9c6.1,39.24,13.77,85.55,24.44,131.55,7.26,31.27,15.91,62.42,25.17,93.25h4.27c-9.37-31.14-18.13-62.6-25.45-94.17C1025.25,1051,1017.6,1004.78,1011.51,965.61Z"/><path class="cls-1" d="M261.15,618c-1.89-9.23-4.13-18.53-6.29-27.52-3.38-14-6.88-28.54-9.06-43-3.8-25.15-4.23-52.18-1.36-87.63,5.48-67.94,20.31-136.28,34.65-202.37,18.22-84,23.67-170.32,23.37-257h-4.09c.3,86.23-5.1,172.37-23.27,256.11-14.37,66.22-29.23,134.69-34.74,202.9-2.89,35.78-2.46,63.1,1.39,88.57,2.22,14.64,5.73,29.24,9.13,43.36,2.16,9,4.39,18.22,6.26,27.38,7.33,35.89,9.71,73.08,12,109.06L298.91,1191H303L273.24,727.61C270.93,691.49,268.53,654.15,261.15,618Z"/><path class="cls-1" d="M414.56,1021c-15.44-29.45-19-51.66-23.86-82.41l-.88-5.53c-2.67-16.7-5.6-33.4-8.43-49.54-14-79.77-27.19-155.12-12.9-237.44,3-17.16,7-34.44,10.94-51.15,3.86-16.5,7.86-33.57,10.84-50.57,11.58-66,8.67-133.5,5.86-198.81-2.27-52.56-5-107.14-16-159.91-2.32-11.13-5-22.56-7.52-33.61-8.6-37.15-5.13-57.23-4.36-94.1.27-13.06-1-42.24-7.41-57.83l-4.24.18c6.32,14.91,7.92,43.89,7.59,56.45-1,37.68-4.31,58.42,4.43,96.22,2.55,11,5.19,22.44,7.51,33.53,11,52.53,13.63,106.8,15.89,159.25,2.81,65.08,5.71,132.39-5.8,197.93-3,16.88-6.94,33.89-10.79,50.34-3.92,16.77-8,34.11-11,51.38-14.42,83-1.15,158.71,12.89,238.85,2.83,16.13,5.75,32.8,8.42,49.47l.89,5.53c4.94,31.13,8.52,53.62,24.27,83.66a724,724,0,0,1,51.35,124.29c3.95,13,8.31,27.9,12.22,43.82h4.22c-4-16.38-8.48-31.74-12.53-45A727.46,727.46,0,0,0,414.56,1021Z"/><path class="cls-1" d="M324.85,1101.85c.78-25.36,1.58-51.58,0-77.86-2-33.52-5.82-67.59-9.49-100.53-2.46-22.16-5-45.07-7-67.56L294.57,699.65c-10.4-117.93-21.16-239.87-.57-358.72,3.53-20.35,8.05-40.91,12.41-60.79,6.71-30.55,13.65-62.14,17.18-93.79,2-17.64,2.91-35.63,3.83-53,.73-13.93,1.49-28.34,2.76-42.45,2.76-30.45,6.43-61.24-2.1-90.63L323.35.14c8.55,29.25,5.51,60,2.76,90.35-1.28,14.19-2,28.64-2.78,42.61-.91,17.34-1.85,35.28-3.8,52.8-3.51,31.43-10.42,62.92-17.11,93.36-4.38,19.93-8.9,40.53-12.45,61-20.68,119.38-9.9,241.59.53,359.78l13.78,156.25c2,22.54,4.54,45.47,7,67.65,3.66,32.9,7.45,66.91,9.47,100.33,1.58,26.09.78,52.22,0,77.48-.62,20.54-1.27,41.77-.65,62.9a173.7,173.7,0,0,0,3.06,26.42h4.16a170.05,170.05,0,0,1-3.13-26.54C323.58,1143.49,324.22,1122.32,324.85,1101.85Z"/><path class="cls-1" d="M66,134.76c-2.44,12.91-6,46.93-5.41,57,.86,14.74,3.37,29.29,5.79,43.37S71.26,263.56,72.1,278a647.15,647.15,0,0,0,11.66,92.93,112.12,112.12,0,0,0,5.58,18.38,29.28,29.28,0,0,1,.85,4.29c.79,5.07,1.54,9.85,4.56,10.89a5,5,0,0,0,1.62.27,6.15,6.15,0,0,0,4.37-2,11.48,11.48,0,0,0,2.44-4.5c4.92-14.7,4.54-31,4.17-46.85-.15-6.57-.29-12.77-.08-18.85.85-23.71,1.82-48.95,3.62-74.07,1.2-16.75,5-33.45,8.75-49.6l9.82-42.68c3.13-13.6,6.36-27.65,11.13-40.94,2.44-6.8,4.47-14.17,6.6-21,2.77-8.88,5.63-18,7.54-27.36,5.33-26.07,5-76.48,5-76.48h-4.1s.32,50-4.93,75.66a278.67,278.67,0,0,1-7.43,27c-2.15,6.88-4.07,13.91-6.55,20.83-4.85,13.52-8.11,27.69-11.27,41.4L115.66,208c-3.75,16.3-7.63,33.15-8.85,50.22-1.8,25.18-2.78,50.47-3.62,74.21-.22,6.2-.07,12.76.08,19.1.36,15.45.73,31.43-4,45.45a7.78,7.78,0,0,1-1.51,3,2.11,2.11,0,0,1-1.57.73c-.9-.76-1.64-5.47-2-7.73a29.42,29.42,0,0,0-1.08-5.15,107.2,107.2,0,0,1-5.38-17.71,643.31,643.31,0,0,1-11.59-92.35c-.85-14.68-3.35-29.23-5.77-43.3s-4.89-28.4-5.74-42.91c-.58-9.88,3-43.57,5.34-56,.88-4.67,8.38-51.86,8.56-69.84.22-22.32-1.39-53.12-3.43-65.45H71.06c2,12.31,3.64,43.1,3.42,65.41C74.3,83.55,67,129.68,66,134.76Z"/><path class="cls-1" d="M80.61,209.36c4.21,26.71,9,40.25,14.28,40.25h.16c5.5-.29,8.25-11.09,10.13-39.84.11-1.77.2-3.13.28-3.91,1.87-19.31,4.93-33.26,10.57-48.15,9.32-24.65,16.79-52.5,22.82-85.14C143.8,45.82,151.77,22,150.09.49H146c1.69,21.27-6.26,44.81-11.17,71.33-6,32.41-13.39,60-22.63,84.44-5.77,15.26-8.9,29.52-10.81,49.21-.08.8-.17,2.2-.29,4-2,31.22-5.09,35.6-6.11,36-2.67-1.08-7.31-17.59-10.34-36.82A164.34,164.34,0,0,1,92.36,127c1.27-3.46,2.78-7,4.24-10.41a140.61,140.61,0,0,0,6.12-16.06c2.49-8.63,3.09-18.27,3.66-27.6.16-2.53.31-5,.5-7.43,1.74-22.07.59-43.89-1-65h-4.1c1.63,21,2.79,42.67,1.06,64.64-.2,2.44-.35,5-.51,7.5-.56,9.1-1.14,18.52-3.51,26.71a137.27,137.27,0,0,1-6,15.59c-1.48,3.47-3,7.06-4.32,10.62A168.5,168.5,0,0,0,80.61,209.36Z"/><path class="cls-1" d="M482.37,92.46a253.94,253.94,0,0,1,1.28,29.31c.08,3.25.16,6.49.16,9.74s-.08,6.49-.26,9.75q.06,3.39-.06,6.75c-.83,21.65-1.69,44,.82,66,.54,4.77,1.25,9.59,1.94,14.24.79,5.39,1.62,11,2.18,16.46.72,7.12,1.1,14.6,1.47,21.83,1.29,25.6,2.63,52.08,19.22,71.51l.58.67.88.05h.28c3.14,0,5.72-2.61,7.09-7.19,3.28-11,3.85-22.5,4.4-33.66.18-3.74.37-7.6.66-11.37,2.93-38.06,16.75-74.73,30.11-110.19,12-31.95,52.51-151,47.43-176.18h-4.17c5.15,25-35.13,143-47.09,174.74-13.46,35.73-27.38,72.68-30.36,111.32-.29,3.82-.48,7.72-.67,11.48-.53,10.92-1.09,22.2-4.22,32.68-.5,1.67-1.42,3.55-2.54,4.11-15-18.31-16.28-43.66-17.52-68.19-.37-7.28-.75-14.81-1.48-22-.57-5.59-1.4-11.21-2.21-16.65-.68-4.62-1.39-9.4-1.92-14.1-2.48-21.69-1.62-43.92-.8-65.42.09-2.36.11-4.71.08-7.07.17-3.34.24-6.67.23-10s-.09-6.62-.18-9.92a253.19,253.19,0,0,0-1.31-28.95q-.47-4.78-1-9.57c-2.05-27-2.05-54-7.05-82h-4c5,27,5,55,7,82.14C481.72,86,482.07,89.24,482.37,92.46Z"/><path class="cls-1" d="M497.68,242.85c.62,8.94,1.27,18.17,2.78,27.49a8.89,8.89,0,0,0,1.47,4.13,4.81,4.81,0,0,0,3.71,1.9,3.8,3.8,0,0,0,2-.57l.85-.52.11-1c.64-6,1.53-12.19,2.4-18.13.58-4,1.17-8.07,1.68-12.08.91-7.11,3.69-14.48,6.38-21.61,1.42-3.74,2.88-7.61,4-11.36l18.27-59.51c13.08-42.58,12.72-86.87,11-132.54Q552,9.6,550.73.23h-4.12q1.27,9.43,1.65,19c1.71,45,2.17,88.94-10.81,131.19L519.18,209.9c-1.11,3.62-2.49,7.26-3.94,11.11-2.77,7.35-5.64,15-6.61,22.54-.51,4-1.09,8-1.68,12-.75,5.14-1.51,10.43-2.13,15.69a12.66,12.66,0,0,1-.33-1.56c-1.48-9.14-2.09-17.87-2.73-27.12-.34-4.85-.69-9.87-1.17-14.91a447.16,447.16,0,0,1-1.32-60.76A644.8,644.8,0,0,1,516.84,41c1-4.09,2-8.18,3.06-12.26,2.27-9,4.93-19.42,3.29-28.69H519c1.53,11-.86,19-3.07,27.69-1,4.09-2.07,8.19-3.06,12.3a647.45,647.45,0,0,0-17.68,126.75,450.42,450.42,0,0,0,1.33,61.31C497,233,497.34,238,497.68,242.85Z"/><path class="cls-1" d="M517.46,67.58c-.71,2.78-1.46,5.56-2.21,8.33-2.27,8.37-4.62,17-5.49,25.85a158.2,158.2,0,0,0-.43,17.37c.05,3.55.09,7.22,0,10.8-.35,10.88.06,9.19-1.72,20-3.14,19-6.39,38.71-1.61,57.77l.37,1.46,1.5.08a5.66,5.66,0,0,0,.58,0h0c3.44-.15,6-3.22,7.24-8.64l17.47-74.34c1.77-7.84,3.61-15.95,4.16-24.18.21-3.19.24-6.4.26-9.51,0-3.67.05-7.46.39-11.12A129.5,129.5,0,0,1,541,64.84a135.53,135.53,0,0,0,3.1-16.63A44.43,44.43,0,0,0,542,28.33c-.14-.37-2.52-6.71-5.92-10l-7.8.33a9.87,9.87,0,0,0-.83,1.6q-.32.76-.6,1.53c-3.3,8.77-4.7,18.23-6.06,27.38C519.9,55.26,519,61.61,517.46,67.58Zm7.4-17.86c1.33-8.93,2.7-18.17,5.85-26.54.18-.48.37-1,.56-1.44a4.13,4.13,0,0,1,.82-1.41c1.3.12,4.49,5,6.1,9.41A40.87,40.87,0,0,1,540,47.79a131.66,131.66,0,0,1-3,16.13A133.25,133.25,0,0,0,533.87,81c-.36,3.85-.39,7.72-.41,11.48,0,3,0,6.2-.25,9.26-.53,7.92-2.33,15.87-4.07,23.56l-17.46,74.34a10.64,10.64,0,0,1-2.24,4.88c-3.84-17.54-.92-35.27,2.17-54,1.8-10.92,1.42-9.36,1.78-20.51.12-3.67.07-7.39,0-11a156.82,156.82,0,0,1,.41-16.92c.84-8.49,3.14-17,5.36-25.17.76-2.8,1.52-5.6,2.23-8.41C523,62.41,523.93,56,524.86,49.72Z"/><path class="cls-1" d="M400.25,1043.29c-6.21-13.86-12.62-28.19-18.33-42.51C315.21,833.54,333,642.23,362.17,460.41l.47-2.89c3.67-22.86,7.47-46.51,7.79-70.09.11-8.37-.6-16.76-1.29-24.86-.54-6.38-1.1-13-1.24-19.45-.1-4.41-.13-8.82-.16-13.24-.06-9.79-.13-19.92-1-30s-2.1-19.89-3.31-29.56c-1.59-12.64-3.23-25.71-4-38.61-.34-5.95-.5-12-.66-17.9l-.91-34.6c-.16-6.19-2.49-10-6.4-10.38-3.55-.37-6.5,2.33-8.37,7.58-4.26,12-7.5,24.46-10.65,36.52-1.16,4.49-2.37,9.13-3.24,13.8-.77,4.1-1.28,8.29-1.77,12.33-.2,1.65-.4,3.31-.62,5-1,7.85-2.71,15.77-4.33,23.44-.95,4.52-1.94,9.21-2.79,13.85-2.46,13.42-4.69,27.31-6.62,41.26-3.63,26.27-6.37,54-8.12,82.31-3.1,50-3.34,103.17-.75,162.67,3,69.78,9.59,140.48,15.92,208.85,5.5,59.36,11.19,120.75,14.55,181.25.8,14.36,1.49,29,2.15,43.15,2.64,56.42,5.37,114.77,15.93,171.21,1.18,6.32,2.49,12.75,3.75,19h4.17l0-.1c-1.3-6.44-2.66-13.11-3.88-19.64-10.5-56.16-13.23-114.36-15.87-170.65-.66-14.16-1.35-28.8-2.15-43.19-3.36-60.58-9-122-14.55-181.39-6.34-68.33-12.88-139-15.91-208.66-2.59-59.35-2.35-112.42.74-162.23,1.75-28.25,4.47-55.84,8.09-82,1.92-13.89,4.14-27.72,6.59-41.08.85-4.59,1.83-9.25,2.77-13.75,1.63-7.74,3.32-15.74,4.38-23.75.22-1.66.43-3.33.63-5,.48-4,1-8.1,1.73-12.09.84-4.52,2-9.09,3.18-13.51,3.12-12,6.34-24.35,10.55-36.18.42-1.2,1.94-5.1,4.09-4.88,1.9.19,2.66,3.58,2.74,6.42l.91,34.59c.15,5.91.31,12,.66,18,.75,13,2.4,26.17,4,38.88,1.21,9.63,2.46,19.59,3.3,29.4s.92,19.93,1,29.64c0,4.43.06,8.87.16,13.3.15,6.61.71,13.27,1.26,19.7.68,8,1.38,16.29,1.27,24.47-.31,23.28-4.09,46.77-7.74,69.49l-.46,2.9C345,541.48,331.65,638.06,331.77,734.83c.13,102.11,15.29,189.59,46.35,267.46,5.74,14.4,12.17,28.77,18.39,42.67,8.95,20,18.2,40.64,25.5,61.62A386.73,386.73,0,0,1,441.06,1191h4.11a391.09,391.09,0,0,0-19.3-85.8C418.51,1084.09,409.23,1063.35,400.25,1043.29Z"/><path class="cls-1" d="M338.8,533.68c.88-6.14,2.19-12.54,3.45-18.74,2.21-10.84,4.5-22.05,4.78-32.93.31-11.74,2-23.41,3.6-34.7,1.82-12.7,3.7-25.82,3.64-39.06-.06-13.49-.19-27-.32-40.48-.13-14.38-.27-28.76-.32-43.15a150.19,150.19,0,0,0-.62-15.8l-.75-6.86c-.72-6.67-1.46-13.57-2.33-20.25-.32-2.43-.53-5-.66-8.21-.1-2.33-.15-4.66-.19-7-.06-3-.12-6.15-.3-9.25a12.3,12.3,0,0,0-1.6-6.24c-1.63-2.48-5-3.57-7.4-2.25l-.59.33-.28.61c-7.09,15.57-11.08,35.77-11.21,56.89-.08,11.79-1.78,24-3.42,35.78-1,7.26-2.06,14.77-2.72,22.12-2.14,23.87-3.35,49-3.69,76.74-.32,26,.16,52.46.63,78l.66,35.89A126.33,126.33,0,0,0,323,582.84c.78,3.28,2.79,3.64,3.62,3.64h.06c1.36,0,2.48-.86,3.33-2.46,2.51-4.76,3.09-10.77,3.64-16.58.22-2.25.42-4.37.73-6.31Zm-8.43,26.8c-.33,2.07-.54,4.26-.76,6.58-.49,5-1,10.22-2.77,14.17a120.46,120.46,0,0,1-3.59-26.16l-.66-35.88c-.47-25.54-.95-52-.64-77.91.34-27.66,1.55-52.66,3.68-76.42.66-7.26,1.69-14.71,2.7-21.92,1.66-11.93,3.37-24.27,3.45-36.32.14-20.16,3.85-39.42,10.47-54.37a2.31,2.31,0,0,1,1.51,1,9,9,0,0,1,.94,4.24c.17,3,.23,6.11.29,9.09.05,2.37.09,4.74.19,7.1.14,3.28.36,6,.69,8.56.87,6.63,1.61,13.51,2.33,20.16l.74,6.87a146.15,146.15,0,0,1,.6,15.37c0,14.39.19,28.78.33,43.17q.19,20.24.31,40.46c.06,12.94-1.8,25.91-3.6,38.46-1.63,11.4-3.32,23.2-3.63,35.17-.28,10.52-2.53,21.55-4.7,32.22-1.28,6.26-2.6,12.73-3.49,18.94Z"/><path class="cls-1" d="M337.09,491.53a14.67,14.67,0,0,0,1.48-4.93c3.3-20.07,5.47-35.47,7-49.94.52-4.81,1-10,1.15-15.11.18-6.79-.31-13.65-.78-20.28-.37-5.16-.75-10.49-.81-15.72-.09-7.74.4-15.59.86-23.19.65-10.49,1.32-21.34.51-32.22-.16-2.31-1-3.76-2.6-4.31a3.41,3.41,0,0,0-1.13-.2c-2.34,0-3.75,2.34-4.25,4.35-1,4-1.95,8.1-2.82,12.13-2.24,10.32-4.06,20.61-5.54,31.44C329,382.39,329,391.38,329,400.07c0,3.11,0,6.21-.06,9.31-.13,8.11-1.08,16.36-2,24.34a250.87,250.87,0,0,0-2.05,25.36c-.05,3.32.14,6.68.32,9.93.21,3.8.43,7.73.26,11.49-.28,6.36.57,10.5,2.59,12.67a5.16,5.16,0,0,0,3.67,1.67h.13A6.25,6.25,0,0,0,337.09,491.53Zm-3.55-2a2.29,2.29,0,0,1-1.7,1.27v2l0-2a1.05,1.05,0,0,1-.78-.37c-.55-.59-1.8-2.72-1.49-9.7.17-4-.05-8-.27-11.9-.18-3.18-.36-6.47-.32-9.64.12-8.35,1.09-16.79,2-24.95s1.89-16.43,2-24.74c.06-3.12.05-6.25.05-9.38,0-8.55,0-17.4,1.18-26,1.47-10.73,3.26-20.92,5.48-31.14.86-4,1.79-8,2.78-11.92.71,10.4.07,20.9-.56,31.06-.47,7.67-1,15.59-.87,23.49.06,5.34.45,10.74.82,16,.46,6.53.95,13.29.77,19.89-.13,5-.61,10.05-1.12,14.77-1.56,14.39-3.72,29.72-7,49.72A10.74,10.74,0,0,1,333.54,489.48Z"/><path class="cls-1" d="M400.91,1092.9a146.85,146.85,0,0,0-8.09-14.52c-1.67-2.76-3.4-5.61-5-8.45-6.74-12.19-10.9-22.54-12.71-31.62-1-4.83-2.38-9.61-3.75-14.24a122.54,122.54,0,0,1-4.41-18.2c-.16-1.18-.3-2.37-.43-3.56-.25-2.22-.51-4.52-.95-6.79a11.43,11.43,0,0,0-2.3-5.48,5.85,5.85,0,0,0-6.92-1.65l-.75.4-.25.8c-4,12.59-4.29,27.41-4.54,40.49v.23c-.3,15.27,1.47,30.24,3.47,45.5,5,38.36,11.06,77.09,17.89,115.23h4.15c-6.87-38.31-12.93-77.23-18-115.76-2-15.1-3.74-29.9-3.44-44.89v-.23c.25-12.4.52-26.4,4-38.2a2.38,2.38,0,0,1,1.29.76,7.79,7.79,0,0,1,1.37,3.58c.41,2.11.65,4.23.9,6.46.13,1.23.27,2.45.44,3.66a126.31,126.31,0,0,0,4.54,18.82c1.34,4.53,2.73,9.23,3.66,13.87,1.9,9.5,6.2,20.23,13.14,32.79,1.61,2.93,3.37,5.81,5.06,8.6a146.16,146.16,0,0,1,7.87,14.12c3.49,7.56,5.6,15.48,7.79,24.31,5.73,23,11,47.26,13.17,72.11h4.11c-2.14-25.24-7.51-49.8-13.31-73.09C406.8,1109.24,404.55,1100.78,400.91,1092.9Z"/><path class="cls-1" d="M400.44,1142.66c-4-13.85-8.81-27.66-13-39.52-.73-2.08-1.52-4.16-2.31-6.23a115.76,115.76,0,0,1-4.25-12.5,142.69,142.69,0,0,0-6.31-19.93c-1.23-2.92-3.29-7.82-7.88-9.27a4.74,4.74,0,0,0-4.92.84,5.41,5.41,0,0,0-1.26,4.3,33.3,33.3,0,0,0,1.17,6.68c.29,1.19.58,2.38.8,3.6.66,3.78,1.29,7.8,1.93,12.28,1.07,7.57,2,15.31,2.88,22.79l.23,1.94c3.29,27.63,6.7,56.1,14.54,83.4h4.25c-8-27.33-11.41-56-14.73-83.88l-.23-1.94c-.89-7.5-1.81-15.26-2.9-22.88-.64-4.53-1.28-8.59-2-12.41-.23-1.31-.54-2.6-.85-3.87a30.86,30.86,0,0,1-1.06-5.89c0-.85,0-1.14,0-1.16a1.66,1.66,0,0,1,.89.1c2.57.81,4,3.88,5.34,7a139.59,139.59,0,0,1,6.12,19.36,117.37,117.37,0,0,0,4.39,12.95c.78,2,1.56,4.08,2.27,6.12,4.15,11.81,8.92,25.56,12.91,39.31.38,1.32.76,2.63,1.13,4a214.62,214.62,0,0,1,7,43.29h4.1a219.34,219.34,0,0,0-7.14-44.39Z"/><path class="cls-1" d="M395,1156.57a105.59,105.59,0,0,0-4.52-14.07,108.7,108.7,0,0,1-4-12c-.32-1.25-1.05-4.19-3.71-5a4.39,4.39,0,0,0-4.62,1.36c-1.23,1.5-1.16,4.1-.95,7.35,0,.58.08,1.08.08,1.45a62,62,0,0,0,.68,9l.3,2c.58,4,1.19,8.17,2.17,12.26l.06.26c2.53,10.59,5.14,21.53,9.12,31.93H394c-.09-.24-.18-.46-.27-.72l-.22-.59c-3.92-10.19-6.51-21.06-9-31.57l-.07-.26c-.93-3.92-1.5-7.8-2.1-11.9l-.29-2a56.71,56.71,0,0,1-.64-8.42c0-.43,0-1-.09-1.72-.08-1.16-.26-3.87.23-4.54.19.06.57.42,1,2.15a113.33,113.33,0,0,0,4.14,12.48,100.37,100.37,0,0,1,4.35,13.51,183.38,183.38,0,0,1,2.85,19.08c.54,4.76,1.12,9.68,2,14.51h4.14c-.89-4.93-1.47-10-2-15A190.52,190.52,0,0,0,395,1156.57Z"/><path class="cls-1" d="M586.3,960.91v-.14c-10.62-89.64-23.07-180.33-37-269.55-1.36-8.67-2.89-17.49-4.36-26-2.56-14.72-5.2-30-7-45-3.45-28.21-5.34-57.15-7.17-85.14l-.91-13.81c-.71-10.91-1.45-22.18-2.6-33.25-.18-1.66-1.13-9.18-2.25-16.31-2.36-15-3.34-15.66-5.32-15.66h-.52l-1.37.63-.2,1a144.29,144.29,0,0,0-2.27,20.1c-.22,5.11-.17,10.29-.12,15.31l.78,75.66c.22,21.28-.78,42.76-1.74,63.54l-.39,8.44C510,726,506,814.11,529.62,898.12c6,21.37,13.89,42.46,21.51,62.85,3.66,9.81,7.45,19.95,11,30,7.39,21,10.66,40.83,14.13,61.81,1.25,7.53,2.54,15.32,4,23.25l.2,1.07,1,.43a4.16,4.16,0,0,0,1.63.35,3.93,3.93,0,0,0,2.95-1.37c1.58-1.74,2.1-4.76,1.91-6.84-.41-4.45-.77-9.1-1.07-13.82-1.89-30-1.27-60.81-.66-90.62Zm-2.59,111.26c-1.25-6.82-2.37-13.54-3.44-20.07-3.5-21.16-6.8-41.15-14.31-62.5-3.54-10.07-7.33-20.23-11-30.06-7.59-20.31-15.43-41.32-21.4-62.53-23.48-83.37-19.51-171.13-15.66-256l.38-8.43c1-20.83,2-42.38,1.75-63.77l-.78-75.67c0-4.95-.11-10.08.11-15.09.15-3.4.42-6.81.81-10.21,1.29,7.41,2.64,17.42,3,20.64,1.14,11,1.88,22.23,2.59,33.09l.91,13.82c1.83,28,3.73,57.05,7.19,85.37,1.85,15.1,4.5,30.38,7.06,45.15,1.47,8.51,3,17.3,4.35,26,13.92,89.11,26.36,179.71,37,269.25l-.08,4c-.61,29.9-1.24,60.82.67,91,.31,4.76.67,9.46,1.08,14A6.71,6.71,0,0,1,583.71,1072.17Z"/><path class="cls-1" d="M559,866.23a159.79,159.79,0,0,1-8.3-45.15c-.18-2.31-.36-4.63-.56-6.94A386.12,386.12,0,0,0,541.3,759c-.64-2.7-1.3-5.4-1.95-8.1-3.19-13.08-6.49-26.61-7-40.19l0-.7a27.62,27.62,0,0,0-1.06-7.78c-.71-2.12-2.16-3.4-3.92-3.42a4,4,0,0,0-2.76,1.21c-2,1.93-2.28,4.69-2.36,7.12s-.12,4.79-.14,7.19c-.38,35.77,4.47,71.95,9.48,105.94,5.59,38,13,76.19,22,113.48,1,4.3,4.43,10.69,9.49,10.69a6.06,6.06,0,0,0,3-.81l.9-.52.12-1a171.71,171.71,0,0,0-4.28-62.4C561.63,875.15,560.27,870.61,559,866.23Zm4.2,74.12h-.1c-1.93,0-4.56-3.61-5.51-7.57-9-37.17-16.39-75.23-22-113.12-5-33.83-9.81-69.82-9.44-105.3q0-3.55.15-7.11a7.17,7.17,0,0,1,.94-4.07l.13.34a23.8,23.8,0,0,1,.85,6.63l0,.72c.56,14,3.91,27.71,7.14,41q1,4,2,8.08a380.71,380.71,0,0,1,8.7,54.55c.2,2.3.37,4.6.55,6.91a164.42,164.42,0,0,0,8.46,46c1.31,4.35,2.66,8.85,3.8,13.3A167.67,167.67,0,0,1,563.15,940.35Z"/><path class="cls-1" d="M878.08,750.49A150.14,150.14,0,0,0,880,734.85a84.85,84.85,0,0,0-.57-18.41,100.54,100.54,0,0,0-3-12.19c-.47-1.6-.94-3.2-1.37-4.8a245,245,0,0,1-4.83-24.06c-1.31-7.92-3.14-15.61-4.9-23-1-4.26-2.06-8.66-3-13.06-5.89-27.59-11.89-53.86-18.35-80.3a14.1,14.1,0,0,0-2.32-5.61,6.3,6.3,0,0,0-7-2.21,6.58,6.58,0,0,0-3.36,3.51,20.6,20.6,0,0,0-1.41,8.17,197.71,197.71,0,0,0,.37,23c.66,7.76,1.69,15.54,2.69,23Q833.46,613,834,617c2,16.14,1.67,32.79,1.31,48.89-.09,4-.18,7.89-.23,11.84-.45,32.19,1.21,66.15,5.41,110.1.89,9.37,1.93,18.87,2.94,28.07.86,7.85,1.72,15.71,2.51,23.58.06.65.09,1.47.13,2.39a32.8,32.8,0,0,0,1.22,9c1.58,4.62,4.67,5.59,7,5.59,6.45,0,10.13-9.6,12.34-15.34l.49-1.27c6.66-16.8,8.15-35.33,9-51.38.22-4,.17-8.12.11-12.11a127.23,127.23,0,0,1,.46-16.15C877.05,757,877.58,753.66,878.08,750.49Zm-2.14-15.86a148,148,0,0,1-1.89,15.21c-.52,3.22-1,6.55-1.43,9.87a130.55,130.55,0,0,0-.49,16.67c0,3.92.11,8-.1,11.84-.86,15.73-2.31,33.86-8.74,50.09l-.51,1.32c-1.34,3.47-4.88,12.71-8.52,12.71-1.06,0-2.26-.33-3.11-2.82a29.82,29.82,0,0,1-1-7.81c0-1-.08-1.91-.16-2.63-.78-7.88-1.64-15.75-2.51-23.62-1-9.18-2-18.67-2.93-28-4.18-43.79-5.84-77.61-5.39-109.66.05-3.93.14-7.86.23-11.8.37-16.25.74-33-1.35-49.49-.34-2.72-.7-5.43-1.06-8.14-1-7.47-2-15.19-2.67-22.86A191.42,191.42,0,0,1,834,563a17.31,17.31,0,0,1,1-6.59,2.77,2.77,0,0,1,1.2-1.44,1,1,0,0,1,.4-.07,2.61,2.61,0,0,1,1.85,1A10.68,10.68,0,0,1,840,560c6.45,26.4,12.45,52.63,18.32,80.18,1,4.45,2,8.87,3,13.16,1.75,7.36,3.56,15,4.85,22.77,1.34,8.06,2.72,16.39,4.91,24.46q.67,2.44,1.4,4.88a100.56,100.56,0,0,1,2.93,11.7A80.34,80.34,0,0,1,875.94,734.63Z"/><path class="cls-1" d="M145.31,1129.27c-.18-10.36-1.77-20.75-3.31-30.8-1.43-9.31-2.9-18.93-3.25-28.51-.89-24.24-3.61-48.61-6.24-72.18-2-18.13-4.12-36.88-5.34-55.31-.93-14-3.1-25.79-6.64-36-1-3-1.86-6.07-2.75-9.34-1.51-5.58-3.07-11.35-5.68-16.55-1.37-2.71-3.61-3.94-5.71-3.15a4.89,4.89,0,0,0-2.6,2.79c-15,32.12-22.06,75.71-19,116.6.56,7.59,1.6,15.24,2.6,22.63a290,290,0,0,1,2.93,28.94c.35,10.32-.45,20.86-1.21,31.06-.87,11.54-1.77,23.48-1,35.29.84,13.63,3.83,27.13,6.72,40.19.75,3.39,1.5,6.78,2.21,10.17q2.73,12.93,4.74,26h4.14q-2.09-13.47-4.88-26.82c-.71-3.41-1.47-6.81-2.22-10.21-2.86-12.91-5.81-26.25-6.63-39.56-.7-11.53.19-23.33,1-34.74.78-10.3,1.58-21,1.23-31.5a291.93,291.93,0,0,0-3-29.35c-1-7.33-2-14.91-2.58-22.38-3-40.23,4-83.06,18.66-114.57.1-.22.19-.4.25-.52a3.68,3.68,0,0,1,.69,1c2.43,4.83,3.94,10.4,5.4,15.78.86,3.19,1.75,6.49,2.83,9.61,3.37,9.76,5.53,21.53,6.42,35,1.23,18.52,3.32,37.32,5.35,55.5,2.62,23.49,5.34,47.78,6.22,71.87.36,9.81,1.85,19.56,3.3,29,1.51,9.92,3.08,20.17,3.26,30.25.21,11.74,1.4,23.62,2.54,35.1.87,8.73,1.76,17.67,2.23,26.6h4.09c-.47-9.09-1.37-18.16-2.25-27C146.69,1152.64,145.52,1140.85,145.31,1129.27Z"/><path class="cls-1" d="M131.89,1151.62c-2.29-15.43-4.65-31.39-5.68-47.19-.7-10.78-2-21.63-3.34-32.13-1.41-11.44-2.87-23.27-3.49-34.94-.77-14.28-1.71-28.78-2.62-42.8-.46-7.1-.92-14.2-1.36-21.34-.67-8-2.3-15.39-4-23.2l-.05-.23a9.28,9.28,0,0,0-1.8-4.27,4.69,4.69,0,0,0-6-1l-.59.41-.2.7c-5.68,19.78-5.18,42.43-4.38,54.17.43,6.27.92,12.48,1.42,18.65,1.41,17.78,2.75,34.57,2.58,52.27-.32,32.87,2.1,62.45,7.4,90.45,1.4,7.39,1.61,15,1.8,22.43.07,2.47.14,5,.25,7.49h4.1c-.12-2.55-.19-5.09-.26-7.6-.2-7.55-.41-15.37-1.87-23.09-5.26-27.72-7.65-57-7.33-89.64.17-17.88-1.17-34.76-2.6-52.63-.49-6.16-1-12.35-1.41-18.61-.77-11.21-1.26-32.56,3.85-51.42a.86.86,0,0,1,.14.13,6.27,6.27,0,0,1,.91,2.49l0,.24c1.7,7.66,3.3,14.9,3.94,22.6q.66,10.66,1.36,21.31c.91,14,1.85,28.51,2.61,42.76.63,11.81,2.1,23.71,3.52,35.22,1.29,10.44,2.62,21.24,3.32,31.89,1,16,3.41,32,5.71,47.53,1.22,8.21,2.48,16.7,3.52,25.07.53,4.22,1.1,8.86,1.63,13.75h4.11c-.54-5.08-1.14-9.88-1.68-14.26C134.37,1168.37,133.11,1159.85,131.89,1151.62Z"/><path class="cls-1" d="M861,699.72c-1.36-7.06-2.77-14.36-3.77-21.6a12.76,12.76,0,0,0-1.46-5,5.75,5.75,0,0,0-5.91-2.85c-9,2-6.24,32.63-5.59,38.75a108.18,108.18,0,0,1,.31,12.74,120.44,120.44,0,0,0,.24,12.28c.57,6.49,1.52,13,2.44,19.36,1.67,11.47,3.39,23.33,2.83,35.06l-.1,1.93c-.35,6.21-.74,13.25,3.23,18.69a4.48,4.48,0,0,0,3.12,2l.3,0c2.1,0,3.67-1.81,4.1-4.71,1.91-12.92,3.43-26.07,4.51-39.06,1.49-17.79,1.38-32-.32-44.84C863.94,714.82,862.46,707.14,861,699.72Zm.18,67.25c-1.07,12.91-2.58,26-4.49,38.8a5,5,0,0,1-.19.82c-3.08-4.26-2.75-10.24-2.43-16l.1-1.95c.59-12.12-1.17-24.18-2.86-35.85-.91-6.27-1.86-12.75-2.42-19.13a117.35,117.35,0,0,1-.22-11.86,110.77,110.77,0,0,0-.34-13.23c-1.79-17-.61-33.66,2.55-34.35a1.93,1.93,0,0,1,1.39,1,9.4,9.4,0,0,1,.91,3.5c1,7.34,2.43,14.69,3.8,21.8,1.42,7.37,2.89,15,3.89,22.52C862.57,735.51,862.66,749.48,861.21,767Z"/><path class="cls-1" d="M51.81,1167.23l-3.41-25.07c-2.66-19.55-5.42-39.75-3.77-59.68a122.14,122.14,0,0,1,2.93-16.67c1-4.65,2.11-9.45,2.73-14.4.4-3.18,1.24-9.8-3-13.52l-.38-.26a4.31,4.31,0,0,0-4-.1c-3,1.37-7.62,6.64-14,36.45l-.24,1.12a233.74,233.74,0,0,0-5.12,47.81c-.23,23.23,2.31,46.2,5.34,68.13H33c-3-21.94-5.6-44.93-5.37-68.09a229.06,229.06,0,0,1,5-47l.24-1.15c6.22-29,10.56-33,11.74-33.59a.62.62,0,0,1,.18-.06c2.08,2.07,1.93,5.89,1.45,9.72-.6,4.76-1.65,9.46-2.67,14a126.94,126.94,0,0,0-3,17.23c-1.69,20.36,1.09,40.8,3.79,60.56l3.41,25.07c.81,6,1.65,12.1,2.9,18.13.36,1.72.76,3.43,1.17,5.13H56c-.49-2-1-4-1.36-6C53.44,1179.18,52.62,1173.11,51.81,1167.23Z"/><path class="cls-1" d="M262,932.9c-4.2-69.88-8.54-142.15-25.4-211.53-2.25-9.29-4.77-18.67-7.21-27.74-3.51-13.09-7.15-26.63-10-40.08-22-102-4-210.88,11.86-307,0,0,38.14-178.62,43.9-239.25,4.71-49.52,3.09-70,2-106.85H273c.53,36.37,2.73,57.16-2,106.62-5.74,60.52-43.82,238.82-43.82,238.82-15.91,96.44-33.94,205.74-11.83,308.48,2.92,13.55,6.57,27.14,10.09,40.28,2.43,9,4.94,18.4,7.19,27.64,16.77,69,21.1,141.11,25.29,210.82l12.52,208.16c1,16.43,2,33,2.63,49.73h4.1c-.66-16.77-1.65-33.47-2.65-50Z"/><path class="cls-1" d="M727.79,1073.62c.3-10.09.61-20.52.59-30.72-.11-54.48-9.87-109-19.31-161.73-6.62-37-13.46-75.21-16.92-113.11-8.54-93.63,3.12-189.2,14.4-281.62,12.32-101,25.07-205.4,11.47-307.58-2.48-18.68-5.89-37.62-9.19-56C701.61,82.79,706.11,41.2,708,.23h-4.09c-1.86,41.35-6.32,83.11.93,123.41,3.29,18.27,6.69,37.17,9.16,55.76,13.53,101.66.81,205.82-11.48,306.55-11.3,92.63-23,188.42-14.41,282.48,3.48,38.08,10.34,76.4,17,113.46,9.4,52.55,19.13,106.9,19.24,161,0,10.13-.29,20.53-.59,30.59-1,32.84-2,66.8,8.17,98.5,2,6.32,4.51,12.7,7.16,19h4.44c-2.87-6.77-5.56-13.58-7.71-20.28C725.82,1139.72,726.82,1106.12,727.79,1073.62Z"/><path class="cls-1" d="M749.38,1053.35c-.33-10.37-.68-21.1-1.25-31.64-2.39-44.38-8.88-89.09-15.15-132.32-5.64-38.85-11.46-79-14.29-118.76-6.63-93.2,2.91-188.27,12.13-280.21,10.65-106.09,21.65-215.8,7.83-323.08-1.58-12.2-3.49-24.67-5.34-36.73h0c-2.68-18.58-.27-25.44,3.29-35.52a140.26,140.26,0,0,0,7.78-32.26c4.59-35.78,1.95-52.54-1.26-62.83h-4.2c3.24,9.76,6.17,25.82,1.49,62.32a135.8,135.8,0,0,1-7.59,31.44c-3.62,10.27-6.28,17.85-3.46,37.46h0c1.84,12,3.76,24.49,5.32,36.63,13.77,106.82,2.78,216.29-7.84,322.16-9.24,92.1-18.79,187.35-12.14,280.9,2.84,39.9,8.68,80.14,14.32,119.05,6.26,43.15,12.74,87.76,15.12,132,.56,10.49.91,21.2,1.25,31.56.92,28.35,1.87,57.67,7.37,86,3.38,17.4,8.53,34.72,13.61,51.53h4.27c-5.17-17.08-10.45-34.7-13.86-52.31C751.25,1110.7,750.3,1081.55,749.38,1053.35Z"/><path class="cls-1" d="M774.92,1108.15c-3.75-22.43-3.11-45.71-2.5-68.23.16-5.87.32-11.73.41-17.59a701.24,701.24,0,0,0-9.31-124.47c-2.39-14.39-5.27-28.93-8-43-4.79-24.17-9.74-49.17-12.29-74-4.58-44.66-1.62-90.24,1.24-134.33l18.14-279.33c1.81-27.87,3.68-56.69,8.67-84.63,1-5.43,2.09-11,3.17-16.3,3.66-18.2,7.45-37,6.55-55.9-.87-18.23-6.08-36-11.11-53.19-1.7-5.78-3.45-11.75-5-17.64l-.06,0c-1.71-7.07-3-16-4.47-30.32-2.73-26.88,2-42.47,6.23-56.22,2.62-8.56,5.09-16.65,5.09-26,0-3.11,0-5.72,0-7.95,0-12.42,0-13.14-1.79-19h-4.18c0,.15.09.3.13.44,1.88,6,1.88,6,1.84,18.57,0,2.24,0,4.86,0,8,0,8.76-2.28,16.21-4.91,24.83-4.32,14.11-9.2,30.11-6.39,57.79,1.48,14.55,2.81,23.67,4.58,30.94h0c.12.42.23.85.35,1.27.16.62.32,1.23.48,1.82h0c1.34,4.92,2.78,9.85,4.19,14.65,5,17,10.11,34.49,11,52.24.88,18.38-2.86,36.94-6.47,54.89-1.08,5.37-2.2,10.92-3.18,16.39-5,28.17-6.92,57.1-8.73,85.08L740.34,646.23c-2.87,44.25-5.84,90-1.23,135,2.58,25.06,7.54,50.15,12.35,74.42,2.78,14,5.65,28.54,8,42.87a695.92,695.92,0,0,1,9.26,123.74c-.09,5.84-.25,11.69-.41,17.53-.62,22.72-1.26,46.21,2.55,69,3.7,22.15,11.6,44.22,19.23,65.55,2,5.6,4,11.15,5.89,16.66h4.32c-2.07-6-4.22-12-6.36-18C786.39,1151.84,778.55,1130,774.92,1108.15Z"/><path class="cls-1" d="M1059.67,1104.05c-7.13-35.51-7.86-72.55-8.57-108.36-.71-36.14-1.45-73.52-8.73-109.52-4.2-20.72-10.61-41.21-16.81-61-6.33-20.23-12.88-41.14-17-62.21-8.14-41.39-7.27-84.51-6.42-126.22.74-36.67,1.5-74.59-3.81-111.44-2.62-18.21-6.78-36.56-10.8-54.31-7.8-34.44-15.87-70.05-12.77-105.46,1.91-21.73,8-43.22,14-64,5.82-20.37,11.83-41.44,13.95-62.9,2.17-21.93.26-44.32-1.58-66-2.23-26.25,1.87-51.79,6.95-77.83,2.39-12.21,6.45-24.53,10.37-36.45,6.05-18.35,15.53-38.8,15.84-57.88h-4c-.27,18.2-9.48,37.8-15.67,56.6-4,12-8.07,24.49-10.5,37-5.2,26.59-9.26,52.42-7,79,1.82,21.47,3.71,43.66,1.58,65.22-2.08,21.09-8,42-13.81,62.18-6,21-12.18,42.64-14.12,64.76-3.16,36,5,72,12.85,106.73,4,17.66,8.15,35.93,10.75,54,5.26,36.52,4.5,74.27,3.76,110.78-.85,41.92-1.73,85.27,6.5,127.09,4.18,21.29,10.76,42.31,17.13,62.64,6.17,19.71,12.55,40.09,16.7,60.6,7.21,35.64,8,72.83,8.66,108.79s1.44,73.21,8.65,109.08c5.09,25.37,13.5,50.44,21.63,74.69q1.92,5.73,3.83,11.5h4.31q-2.13-6.42-4.27-12.8C1073.08,1154.11,1064.72,1129.16,1059.67,1104.05Z"/><path class="cls-1" d="M1076.16,962.65c-5.05-31.74-12.13-63.65-19-94.5-9.11-41-18.52-83.37-23.21-125.73-3.5-31.51-4.47-63.8-5.4-95-1.07-35.44-2.17-72.08-6.95-107.84-1.72-12.84-4-25.83-6.11-38.39-4.28-24.95-8.71-50.75-9.28-76.38-.55-24.54,3.11-48.89,6.65-72.43,1.33-8.88,2.71-18.07,3.86-27.18l.15-1.24c2-15.84,3.87-30.8,7.82-46.2,1.14-4.43,2.33-8.86,3.51-13.29,3.09-11.49,6.28-23.37,8.51-35.3,3.14-16.81,4.44-34.1,5.7-50.82,1.18-15.56,2.39-31.64,5.08-47.2.73-4.19,1.57-8.43,2.39-12.54.93-4.63,1.88-9.43,2.67-14.19,4.13-24.83,4-50.38,3.89-75.09,0-9.25-4.3-19.81-4.32-29.31h-4.09c0,9.51,4.28,20.07,4.32,29.33.12,24.54.24,49.91-3.83,74.4-.78,4.7-1.73,9.46-2.65,14.06-.82,4.13-1.67,8.41-2.4,12.64-2.73,15.76-4,31.94-5.13,47.59-1.26,16.61-2.56,33.79-5.66,50.38-2.2,11.78-5.36,23.58-8.42,35-1.2,4.44-2.39,8.89-3.53,13.34-4,15.64-5.91,30.73-7.91,46.7l-.16,1.24c-1.14,9.06-2.51,18.22-3.85,27.08-3.56,23.72-7.25,48.24-6.69,73.13.58,25.93,5,51.88,9.34,77,2.15,12.52,4.37,25.47,6.08,38.24,4.76,35.55,5.86,72.09,6.92,107.42.94,31.31,1.91,63.68,5.42,95.35,4.72,42.58,14.16,85.07,23.28,126.17,6.84,30.79,13.91,62.63,18.94,94.25,4.86,30.58,8.09,62.36,11.21,93.08,4.57,44.93,9.22,90.66,19.14,134.67h4.21c-10-44.08-14.7-90-19.28-135.08C1084.27,1025.18,1081,993.35,1076.16,962.65Z"/><path class="cls-1" d="M1179.72,1057.59c-5-33.28-10.23-67.7-12.27-101.81-5.63-94,12.47-188.58,30-280,14.3-74.68,29.08-151.9,31-228.87C1230,388.27,1224,329,1218.29,271.58c-2.6-25.94-5.28-52.76-7.24-79.16C1206.91,136.74,1224,67.67,1237.78,0h-4.17c-13.74,67.87-30.78,137-26.64,192.72,2,26.45,4.65,53.3,7.25,79.27,5.72,57.24,11.65,116.43,10.16,174.79-2,76.64-16.7,153.69-31,228.21-17.55,91.69-35.7,186.5-30,281,2.05,34.29,7.26,68.8,12.31,102.17,3.8,25.15,7.74,51.16,10.28,76.87a548.52,548.52,0,0,1,2.83,56h4.09a553.68,553.68,0,0,0-2.85-56.38C1187.48,1108.86,1183.53,1082.79,1179.72,1057.59Z"/><path class="cls-1" d="M1389.49,1097.81c-4.77-13.16-9.7-26.77-14.06-40.27a613.17,613.17,0,0,1-26.72-127.89c-4.14-41.7-4-84.31-3.85-125.52l.86-245c.16-44,.32-89.56,4.45-134.11,2.58-27.78,6.78-55.87,10.84-83,1.38-9.24,2.76-18.48,4.08-27.73C1380.54,206.22,1432.62,100,1430.92,0h-4.09c1.7,99.76-50.36,205.83-65.79,313.71-1.32,9.24-2.7,18.47-4.08,27.7-4.06,27.23-8.27,55.38-10.86,83.28-4.15,44.72-4.31,90.35-4.47,134.47l-.85,245c-.15,41.32-.3,84,3.86,125.94a617.05,617.05,0,0,0,26.9,128.74c4.39,13.57,9.33,27.22,14.11,40.41,9.86,27.24,16.17,54.83,24.24,83a44.2,44.2,0,0,1,1.8,8.27l1.23,1h2.75a92.09,92.09,0,0,0-1.84-10.42C1405.67,1152.61,1399.41,1125.19,1389.49,1097.81Z"/><path class="cls-1" d="M1653.56,669.19c-14.87-102.83-30.25-209.15,8-312,7-19,14.73-37.63,22.34-55.84v-10.6c-8.82,21.07-17.92,42.84-26.16,65-38.59,103.88-23.13,210.72-8.18,314,8.73,60.36,17.76,122.77,16.2,184.56-1.26,49.7-6.82,100.94-12.41,150.7h-.11c-.46,3.86-1,8.08-1.53,12.59-4.24,34.53-10.64,86.7-11.11,128.42-.23,20.36.08,35.2.51,45.52h4c-.44-10.3-.76-25.17-.53-45.47.47-41.5,6.85-93.54,11.08-128q.36-2.94.7-5.71l.26,0c5.84-52,11.88-105.79,13.2-158C1671.37,792.3,1662.32,729.71,1653.56,669.19Z"/><path class="cls-1" d="M1684.25,761.18l-.06-70.3c-.64-21.2-1.9-42.34-4-63.35-4.89-48.36-19.41-188.32-7.14-249.12,2.9-14.38,7.07-23.46,10.88-37.05V326.09c-5.58,18.52-10.71,32.48-14.93,51.88-14,64.54,2.22,201.41,7.13,250,9.5,93.82,2.33,190.35-4.6,283.69-6.84,92.19-13.84,186.71-4.76,279.41h4.11c-9.11-92.51-2.11-187,4.73-279.11C1679.25,862.3,1683,811.76,1684.25,761.18Z"/><path class="cls-1" d="M1397.53,1028.52c-12.76-47.6-26-96.83-32.34-145.53-11.89-90.52-.62-183.21,10.28-272.86,4.33-35.56,8.8-72.34,11.77-108.51,3.28-39.93,4.84-80.61,6.35-120,1-25.86,3.11-51.32,6.48-77.83,1.91-15,6.15-47.69,10.34-80,4-31,8-61.69,9.84-76.08,6.76-53.07,24.4-107.06,20.56-142-.21-1.95-.42-3.84-.62-5.69h-4.11c.21,2,.43,4,.67,6.14,3.82,34.75-13.85,88.45-20.55,141-1.84,14.39-5.82,45.06-9.84,76.07-4.19,32.33-8.44,65-10.35,80-3.38,26.62-5.51,52.2-6.51,78.22-1.5,39.31-3.06,79.95-6.34,119.78-3,36.09-7.43,72.83-11.75,108.36-10.93,89.89-22.23,182.85-10.28,273.88,6.43,49,19.66,98.33,32.45,146.06,14.19,53,28.08,107.92,33.23,162h4.11c-1.84-19.51-4.83-39.13-8.54-58.71,6,21,12,44.28,13.77,58.71h4c-3.47-30-24.91-96.32-27.88-105.39C1407.66,1066.78,1402.62,1047.53,1397.53,1028.52Z"/><path class="cls-1" d="M1469.94,809.4c-2.86-35.45-2.44-62.48,1.36-87.64,2.19-14.46,5.68-29,9.06-43,2.17-9,4.41-18.3,6.29-27.53,7.38-36.16,9.78-73.5,12.1-109.61L1536.5.49h-4.1l-37.73,540.87c-2.31,36-4.7,73.17-12,109-1.88,9.17-4.1,18.43-6.26,27.39-3.4,14.12-6.92,28.71-9.13,43.35-3.85,25.48-4.28,52.8-1.4,88.58,5.51,68.21,20.37,136.68,34.74,202.9,12.71,58.56,25.66,118.29,32.21,178.41h4.12c-6.55-60.45-19.57-120.46-32.34-179.28C1490.25,945.68,1475.42,877.34,1469.94,809.4Z"/><path class="cls-1" d="M1615.77,724.82c-3-17-7-34.06-10.84-50.57-3.91-16.71-8-34-10.93-51.15-14.3-82.31-1.09-157.66,12.89-237.43,2.83-16.14,5.76-32.84,8.43-49.54l.88-5.52c4.89-30.75,8.42-53,23.86-82.42a737.29,737.29,0,0,0,43.68-100.74V134.68a728.78,728.78,0,0,1-47.29,111.61c-15.75,30-19.33,52.55-24.28,83.68l-.87,5.51c-2.67,16.68-5.6,33.35-8.42,49.48-14,80.14-27.32,155.83-12.9,238.84,3,17.28,7.06,34.62,11,51.39,3.85,16.44,7.83,33.45,10.8,50.34,11.5,65.54,8.6,132.84,5.79,197.93-2.26,52.44-4.6,106.66-13.23,159.64-1.82,11.18-4,22.69-6,33.82-4.55,24.55-9.16,49.46-11.17,74.12h4.11c2-24.38,6.57-49.06,11.08-73.37,2.07-11.16,4.2-22.69,6-33.91,8.68-53.22,11-107.56,13.29-160.12C1624.44,858.33,1627.36,790.8,1615.77,724.82Z"/><path class="cls-1" d="M1374.27,1164.08c-2.82-6.57-5.74-13.37-8.18-20.18-4.76-13.27-8-27.31-11.13-40.93l-9.81-42.69c-3.72-16.15-7.56-32.86-8.76-49.59-.89-12.52-1.42-25.29-1.92-37.64l-.37-8.86c-.11-2.74-.17-5.53-.23-8.34-.24-11.1-.48-22.57-4.24-33.09-.88-2.47-2.14-5.18-4.81-6.54-4.46-2.27-9.27.77-12.29,4.36-10.06,12-11.12,29.36-11.9,42l-2.69,43.88c-.66,10.62-1.33,21.61-1.43,32.46,0,3.76.13,7.5.3,11.11a113.27,113.27,0,0,1-.13,18.06h.08a164.62,164.62,0,0,1-2.62,18.25c-1.55,8.32-3,16.18-2.79,28.79.19,10.74,2.56,21.54,5.07,33,3,13.75,6.12,27.94,5.75,43.39h4c.37-15.88-2.78-30.29-5.84-44.25-2.47-11.23-4.8-21.85-5-32.19-.21-12.21,1.22-19.87,2.72-28a168.11,168.11,0,0,0,2.67-18.53h0a76,76,0,0,0,.45-9c0-.2,0-.39,0-.6h0c0-3.06-.16-6.1-.3-9.08-.16-3.56-.33-7.24-.3-10.89.11-10.75.78-21.68,1.43-32.25l2.69-43.88c1-15.71,2.45-29.53,11-39.66,2.07-2.46,5.13-4.45,7.31-3.34,1.39.7,2.2,2.55,2.81,4.27,3.53,9.89,3.77,21,4,31.8.06,2.84.12,5.66.24,8.43l.36,8.85c.51,12.38,1,25.18,1.94,37.76,1.21,17,5.09,33.91,8.84,50.22l9.82,42.72c3.16,13.7,6.41,27.87,11.26,41.36,2.48,6.93,5.43,13.79,8.27,20.42,3.53,8.22,8,17,10.71,25.6h4.29c0-.17-.09-.35-.15-.52C1382.51,1181.72,1377.93,1172.62,1374.27,1164.08Z"/><path class="cls-1" d="M1341.58,1157.14c-2.61-9.51-5.3-19.35-7.31-29.14-3.64-17.73-5.21-36.15-6.72-54-.83-9.79-1.69-19.9-2.89-29.82-.35-2.93-1.52-4.65-3.49-5.12-2.26-.55-4.53,1.05-5.6,4-1.73,4.76-2,10.82-2.22,16.17-.08,1.84-.16,3.62-.29,5.27-.64,8.06-.94,16.09-.87,23.85a230,230,0,0,0,5.22,47.38c.08.33.16.66.23,1,.46,2.28,1,4.36,1.49,6.28.22.89.43,1.78.65,2.67l.11,0c1.24,4,2.56,7.34,3.78,10.42a65.08,65.08,0,0,1,3.84,11.73c1.64,8.28.2,18.16-.91,23.72h4.09c1.15-6,2.46-15.87.74-24.5a69.26,69.26,0,0,0-4-12.43c-1.23-3.09-2.56-6.43-3.78-10.49-.76-3.07-1.52-6.15-2.2-9.24a225.28,225.28,0,0,1-5.13-46.53c-.07-7.65.22-15.55.86-23.49.13-1.7.21-3.53.29-5.43.22-5,.47-10.77,2-14.94a3.59,3.59,0,0,1,.81-1.33,4.78,4.78,0,0,1,.38,1.53c1.19,9.86,2.05,19.93,2.87,29.68,1.53,17.93,3.1,36.47,6.79,54.44,2,9.92,4.75,19.83,7.38,29.4,2.14,7.81,6.35,15.88,8.17,23.88.69,3,.68,6,1.26,8.94h4.16c-.63-3.25-.68-6.52-1.43-9.85C1348,1173.11,1343.73,1165,1341.58,1157.14Z"/><path class="cls-1" d="M1592.25,969.31c.86-10,.93-20.17,1-29.95,0-4.42.06-8.83.16-13.26.15-6.48.7-13.06,1.25-19.44.68-8.1,1.39-16.49,1.28-24.87-.31-23.58-4.11-47.22-7.79-70.09l-.46-2.89c-29.17-181.82-47-373.12,19.74-540.36,5.71-14.32,12.13-28.66,18.33-42.52,9-20.06,18.26-40.8,25.62-61.94A392.48,392.48,0,0,0,1671.47.49h-4.11a388.21,388.21,0,0,1-19.85,162.15c-7.3,21-16.55,41.64-25.49,61.62-6.22,13.9-12.65,28.28-18.4,42.67-31.06,77.87-46.22,165.36-46.35,267.47-.12,96.77,13.26,193.35,26.37,275.06l.46,2.89c3.66,22.72,7.43,46.22,7.74,69.5.11,8.18-.59,16.46-1.27,24.47-.54,6.43-1.11,13.09-1.26,19.69-.1,4.45-.13,8.88-.15,13.32-.07,9.71-.14,19.75-1,29.62s-2.09,19.78-3.3,29.42c-1.59,12.7-3.24,25.84-4,38.87-.34,6-.5,12.12-.66,18l-.91,34.6c-.07,2.84-.83,6.22-2.73,6.42-2.18.22-3.67-3.68-4.1-4.88-4.2-11.82-7.43-24.21-10.55-36.18-1.15-4.41-2.33-9-3.18-13.52-.74-4-1.24-8.08-1.73-12-.2-1.68-.41-3.35-.63-5-1.06-8-2.74-16-4.37-23.75-1-4.5-1.93-9.16-2.77-13.75-2.46-13.36-4.68-27.18-6.6-41.08-3.62-26.17-6.34-53.76-8.09-82-3.09-49.82-3.33-102.88-.74-162.24,3-69.68,9.58-140.33,15.91-208.66,5.5-59.39,11.19-120.81,14.56-181.38.8-14.39,1.48-29,2.15-43.2,2.63-56.28,1.26-114.48,11.77-170.65,1.22-6.53,2.57-13.19,3.88-19.64,5.17-25.48,10.47-51.68,9.49-77.79h-4.09c1,25.7-4.27,51.7-9.4,77-1.32,6.46-2.67,13.14-3.9,19.7-10.56,56.44-9.2,114.79-11.84,171.21-.66,14.15-1.35,28.79-2.14,43.16-3.37,60.5-9,121.88-14.55,181.24-6.34,68.37-12.89,139.07-15.93,208.86-2.59,59.49-2.34,112.7.75,162.66,1.76,28.35,4.49,56.05,8.12,82.32,1.93,14,4.16,27.84,6.63,41.26.85,4.64,1.83,9.32,2.79,13.85,1.61,7.66,3.28,15.59,4.32,23.44.22,1.66.42,3.32.62,5,.5,4,1,8.21,1.77,12.31.87,4.69,2.08,9.32,3.25,13.8,3.14,12.06,6.39,24.53,10.65,36.52,1.75,4.93,4.48,7.61,7.74,7.61l.62,0c3.91-.4,6.24-4.19,6.41-10.39l.91-34.59c.15-5.88.31-12,.65-17.91.75-12.89,2.38-26,4-38.59C1590.14,989.2,1591.4,979.2,1592.25,969.31Z"/><path class="cls-1" d="M1548.52,686.39a126.33,126.33,0,0,0-3.86,27.69L1544,750c-.47,25.53-1,51.94-.63,78,.34,27.75,1.55,52.85,3.69,76.73.66,7.36,1.71,14.87,2.72,22.13,1.64,11.8,3.34,24,3.42,35.77.14,21.12,4.12,41.32,11.21,56.9l.28.61.59.32a4.72,4.72,0,0,0,2.34.61,6.26,6.26,0,0,0,5.06-2.85,12.31,12.31,0,0,0,1.6-6.25c.18-3.09.24-6.22.3-9.24,0-2.34.09-4.68.19-7,.13-3.16.34-5.77.66-8.21.87-6.69,1.62-13.6,2.34-20.29l.74-6.82a150.3,150.3,0,0,0,.62-15.8c0-14.38.19-28.77.33-43.15q.19-20.24.31-40.47c.06-13.24-1.82-26.37-3.64-39.06-1.61-11.29-3.28-23-3.59-34.7-.29-10.88-2.57-22.08-4.78-32.92-1.27-6.2-2.58-12.62-3.46-18.78l-4.39-27.42c-.31-1.94-.52-4.07-.73-6.32-.56-5.81-1.14-11.82-3.65-16.57-.85-1.6-2-2.43-3.38-2.46C1551.31,682.75,1549.3,683.11,1548.52,686.39Zm6.59,15.77c.22,2.33.43,4.52.76,6.59l4.39,27.38c.89,6.25,2.21,12.72,3.49,19,2.17,10.67,4.43,21.7,4.7,32.21.31,12,2,23.77,3.64,35.18,1.79,12.55,3.65,25.52,3.59,38.46,0,13.48-.18,27-.31,40.45-.14,14.39-.28,28.78-.33,43.18a143.62,143.62,0,0,1-.6,15.36l-.74,6.83c-.71,6.66-1.46,13.56-2.32,20.2-.34,2.56-.56,5.29-.7,8.57-.1,2.36-.14,4.73-.19,7.1-.06,3-.12,6.07-.29,9.09a8.81,8.81,0,0,1-.94,4.24,2.24,2.24,0,0,1-1.51,1c-6.62-14.94-10.33-34.2-10.46-54.36-.08-12.05-1.8-24.39-3.46-36.31-1-7.22-2-14.67-2.69-21.93-2.14-23.78-3.34-48.78-3.68-76.42-.32-26,.16-52.4.63-77.91l.66-35.89a120.52,120.52,0,0,1,3.6-26.15C1554.13,692,1554.62,697.14,1555.11,702.16Z"/><path class="cls-1" d="M1556,892.94c.21,3.33.39,6.68.56,10,.43,8,.87,16.31,1.71,24.45q.27,2.76.63,5.51c.67,5.26,2.82,8.27,5.88,8.27a5,5,0,0,0,1.71-.32c4.29-1.58,4.11-9.08,4-13.11l-.66-49.95a258.5,258.5,0,0,0-1.35-27.56c-.58-4.77-1.09-9.56-1.6-14.35-.71-6.56-1.43-13.34-2.31-19.92-.55-4-1-8.13-1.38-12.1-.87-8.38-1.77-17.06-3.83-25.64-.76-3.18-2.49-5-4.75-5a2.37,2.37,0,0,0-2.19,2.43l2.36,86.07C1555,872,1555.31,882.49,1556,892.94Zm3.13-88.62c.41,4,.84,8.13,1.39,12.23.88,6.52,1.6,13.27,2.3,19.8.52,4.81,1,9.63,1.61,14.41a256.79,256.79,0,0,1,1.32,27.13l.64,49.16,0,.83c.2,8-1,9-1.33,9.17a.92.92,0,0,1-.3.07c-.43,0-1.43-1.61-1.82-4.7-.24-1.8-.44-3.6-.63-5.41-.82-8-1.26-16.28-1.68-24.25-.18-3.37-.36-6.73-.57-10.07-.64-10.38-.92-20.89-1.2-31.05l-2.07-75.53C1557.82,792.2,1558.46,798.34,1559.08,804.32Z"/><path class="cls-1" d="M1576.33,238.91v.26c.26,13.07.55,27.88,4.54,40.47l.26.8.75.39a4.83,4.83,0,0,0,2.28.56,6.38,6.38,0,0,0,4.64-2.2,11.53,11.53,0,0,0,2.3-5.48c.43-2.27.69-4.56.94-6.78.14-1.19.27-2.39.43-3.57a124.23,124.23,0,0,1,4.41-18.21c1.37-4.62,2.79-9.41,3.75-14.23,1.82-9.09,6-19.43,12.71-31.62,1.57-2.85,3.3-5.7,5-8.45a147.85,147.85,0,0,0,8.08-14.53c3.64-7.87,5.89-16.34,8-25,8.28-33.28,15.72-69.14,14.06-105.88-.34-7.71-1.1-15.5-1.84-23-.7-7.2-1.4-14.53-1.76-21.87h-4.1c.36,7.49,1.08,14.94,1.79,22.26.73,7.49,1.49,15.24,1.83,22.83,1.63,36.22-5.74,71.73-14,104.72-2.11,8.5-4.3,16.76-7.79,24.31a141.85,141.85,0,0,1-7.87,14.11c-1.69,2.8-3.44,5.68-5.06,8.6-6.94,12.56-11.24,23.29-13.14,32.8-.92,4.64-2.31,9.33-3.66,13.87a126.18,126.18,0,0,0-4.54,18.81c-.16,1.22-.3,2.45-.44,3.67-.25,2.24-.49,4.35-.9,6.46a7.83,7.83,0,0,1-1.37,3.58,2.38,2.38,0,0,1-1.29.76c-3.48-11.8-3.76-25.79-4-38.18v-.26c-.29-15,1.46-29.77,3.44-44.88,5.24-40,11.54-80.34,18.72-120l.52-2.84c4.21-23.22,16.06-47.08,14.42-70.62h-4.11c1.66,23.16-10.15,46.84-14.33,69.89l-.52,2.84c-7.2,39.73-13.51,80.17-18.75,120.2C1577.8,208.69,1576,223.66,1576.33,238.91Z"/><path class="cls-1" d="M1620.44,32.58c-1,10-4.37,19.81-7.63,29.3-.93,2.71-1.87,5.41-2.75,8.12-9.65,29.76-13.39,61.19-17,91.58l-.21,1.83c-.94,7.89-1.91,16.05-3.06,24-.28,1.92-.59,3.82-.89,5.71-1,6.17-2,12.55-2,19.17,0,.78,0,3.13,2,4.24a3.62,3.62,0,0,0,1.81.47,4.44,4.44,0,0,0,1.82-.4c2.46-1.07,3.62-3.64,4.24-5a143.27,143.27,0,0,0,5-13.44c2.79-8.34,5.78-16.83,8.68-25,5.82-16.5,11.84-33.55,16.6-50.57,5.56-19.89,8.18-43.45,7.78-70-.17-11-.8-22.2-1.42-33-.36-6.26-.71-12.63-1-19h-4.09c.28,6.48.64,12.93,1,19.26.61,10.77,1.25,21.9,1.41,32.84.4,26.21-2.17,49.38-7.63,68.89-4.72,16.89-10.72,33.88-16.52,50.31-2.9,8.22-5.9,16.72-8.7,25.09a137.92,137.92,0,0,1-4.9,13.06,6.21,6.21,0,0,1-2,2.83c0-.13,0-.28,0-.48-.07-6.27.88-12.2,1.89-18.48.31-1.91.62-3.83.9-5.78,1.16-8,2.14-16.22,3.08-24.13l.21-1.83c3.6-30.2,7.32-61.43,16.85-90.81.88-2.69,1.8-5.37,2.72-8.05,3.34-9.71,6.8-19.76,7.84-30.22,1.09-11,2.19-22.32,0-32.5h-4.2C1622.81,11.87,1621.48,22.1,1620.44,32.58Z"/><path class="cls-1" d="M1622.81,69.57c-2.17,1.52-2.69,4-3.12,6.06a16.2,16.2,0,0,1-.37,1.59,63.63,63.63,0,0,1-2.63,6.7c-.31.69-.61,1.38-.9,2.06-.61,1.45-1.24,2.89-1.86,4.33-1.84,4.23-3.73,8.61-5.37,13-4.6,12.49-5.62,25-3.32,40.45a3,3,0,0,0,.89,1.84,2.62,2.62,0,0,0,1.78.68,2.92,2.92,0,0,0,1.91-.72,4.14,4.14,0,0,0,1.08-1.72l.4-1.1a25.06,25.06,0,0,1,1.14-2.84,34.27,34.27,0,0,0,2.27-6.95c.24-1,.48-1.91.74-2.8q1.46-4.95,2.81-9.92c1.79-6.57,3.47-13.29,5-20s2.89-13.47,4.12-20.19c.06-.32.18-.77.31-1.29.78-3,2-7.5-1-9.32A3.47,3.47,0,0,0,1622.81,69.57Zm.92,8.2c-.17.65-.31,1.2-.38,1.6-1.22,6.66-2.59,13.39-4.09,20s-3.17,13.31-4.94,19.82c-.9,3.29-1.82,6.56-2.79,9.83-.28.94-.53,2-.78,3a31.28,31.28,0,0,1-2,6.11l-.12.24c-1.32-12.57-.13-23.1,3.74-33.59,1.59-4.32,3.47-8.65,5.28-12.84q.94-2.18,1.87-4.35c.29-.67.58-1.35.88-2a64.69,64.69,0,0,0,2.8-7.15c.18-.59.33-1.26.47-1.94a10.73,10.73,0,0,1,.82-2.78A24.23,24.23,0,0,1,1623.73,77.77Z"/><path class="cls-1" d="M1278.08,876.7c13-58.78,16-118.37,17.2-163.73.61-23.63.76-47.66.9-70.9l.09-13c.07-9.91-.41-19.84-.87-29.45-.7-14.74-1.43-30-.17-45.17.37-4.53.9-9.18,1.42-13.68,1.69-14.8,3.44-30.11.15-45l-.27-1.24-1.24-.31a8.49,8.49,0,0,0-2-.24c-7.68,0-10.18,11.2-11,14.88-.63,2.83-1.06,5.6-1.41,7.82-.19,1.28-.36,2.36-.52,3.14-1.86,9-5.13,17.15-8.58,25.79-.67,1.67-1.35,3.36-2,5.06-11.57,29.47-18.51,52.68-22.51,75.25-1.59,9-2.75,18.19-3.86,27.08-1,8.34-2.13,17-3.56,25.36-2.52,14.67-6.26,29.39-9.87,43.62-1.47,5.77-2.93,11.53-4.33,17.31a721.17,721.17,0,0,0-16.11,242.08c.89,8.67,2,17.44,3.16,26.06a118.49,118.49,0,0,0,3.08,14c.74,2.81,1.51,5.72,2.14,8.7,1.38,6.52,2.39,13.25,3.38,19.76,1.52,10.12,3.1,20.57,6.08,30.64.7,2.36,1.36,5,2,7.89,3,12.39,6.81,27.82,18.43,33.71a8.18,8.18,0,0,0,3.58,1,5.31,5.31,0,0,0,1-.09,6.19,6.19,0,0,0,4.69-4.93,14.18,14.18,0,0,0-.18-5.58c-.64-3.71-1.37-7.46-2.11-11.22-1.84-9.4-3.74-19.13-4.14-28.58-.58-13.65-.6-27.53-.06-41.24a506.78,506.78,0,0,1,9.95-81.8c.08-.37.19-.78.31-1.19a12.81,12.81,0,0,0,.58-3c2.59-12,5.67-24.19,8.65-36C1272.84,898.8,1275.64,887.7,1278.08,876.7Zm-20.64,68.1,0,.43a10,10,0,0,1-.44,2.18c-.14.51-.27,1-.37,1.46a509.21,509.21,0,0,0-10,82.46c-.55,13.82-.53,27.81.06,41.57.41,9.76,2.34,19.64,4.21,29.2.73,3.73,1.46,7.44,2.09,11.13a10.71,10.71,0,0,1,.21,4,2.28,2.28,0,0,1-1.43,1.8,3.2,3.2,0,0,1-2-.53c-9.94-5-13.47-19.45-16.31-31-.7-2.89-1.37-5.62-2.1-8.08-2.9-9.79-4.46-20.11-6-30.09-1-6.57-2-13.36-3.42-20-.65-3.07-1.43-6-2.19-8.89a114.67,114.67,0,0,1-3-13.53c-1.2-8.57-2.26-17.29-3.15-25.91a717.43,717.43,0,0,1,16-240.7c1.39-5.76,2.85-11.51,4.31-17.26,3.63-14.31,7.39-29.11,9.93-43.94,1.46-8.49,2.55-17.16,3.6-25.54,1.11-8.84,2.25-18,3.83-26.88,4-22.29,10.82-45.25,22.28-74.47l2-5c3.53-8.82,6.85-17.14,8.79-26.48.17-.82.35-2,.56-3.34.34-2.17.76-4.86,1.36-7.56,1.17-5.23,3.29-11.44,6.8-11.68,2.73,13.75,1.07,28.2-.52,42.19-.52,4.53-1.06,9.21-1.44,13.81-1.28,15.44-.55,30.82.17,45.7.45,9.55.93,19.43.86,29.22l-.08,13c-.15,23.22-.3,47.22-.91,70.82-1.16,45.17-4.15,104.51-17.1,163-2.42,10.94-5.22,22-7.94,32.7C1263.15,920.37,1260.05,932.63,1257.44,944.8Z"/><path class="cls-1" d="M1281.37,633.39c-.22-5.31-.76-11.36-4.56-15.91l-.53-.64-.83-.09c-4.94-.5-8.85,3.72-10.75,11.37-3.78,15.24-7,31.63-9.89,50.1-1.25,8.07-1.86,16.14-2.44,23.95-.53,7.05-1.08,14.34-2.1,21.51-1.88,13.18-4.49,26.57-7,39.53-3.63,18.66-7.38,37.95-9.06,57-.52,5.95-.83,12-1.13,17.84-.27,5.29-.55,10.76-1,16.11-.68,8.28-1.73,16.32-2.66,23.09-1.07,7.7-2.45,15.46-3.78,23-3.74,21-7.6,42.72-4.75,64.91l.28,2.16c.62,4.88,1.32,10.41,2.43,15.75,1.5,7.23,3.5,13,6.13,17.5a3.79,3.79,0,0,0,3.6,2.49c2.08,0,3.68-1.82,4.06-4.64a104.15,104.15,0,0,0,.65-13.7,85,85,0,0,1,1-15.39c1.11-6,1.91-12.17,2.68-18.15.54-4.2,1.1-8.54,1.77-12.77,2.52-16.06,5.74-32.3,8.86-48q1.82-9.1,3.58-18.21c3-15.63,6.13-31.8,7.85-48,1.32-12.33,1.84-24.89,2.35-37,.44-10.64.9-21.63,1.89-32.38,1.37-14.91,3.81-30,6.17-44.64C1278.23,685.11,1282.41,659.21,1281.37,633.39Zm-17.43,121c-1,10.85-1.46,21.9-1.91,32.59-.5,12.08-1,24.57-2.32,36.77-1.71,16-4.8,32.09-7.8,47.64q-1.76,9.09-3.58,18.18c-3.12,15.74-6.36,32-8.89,48.16-.67,4.29-1.24,8.66-1.79,12.89-.76,5.92-1.55,12-2.64,17.92a88.3,88.3,0,0,0-1,16.12,101.88,101.88,0,0,1-.62,13.17,4.06,4.06,0,0,1-.12.57c-2.38-4.15-4.22-9.45-5.62-16.2-1.07-5.18-1.73-10.4-2.38-15.44l-.27-2.16c-2.78-21.57.86-42,4.71-63.68,1.34-7.54,2.73-15.34,3.81-23.12.94-6.83,2-14.94,2.69-23.32.44-5.41.72-10.91,1-16.23.3-5.81.61-11.81,1.13-17.69,1.66-18.85,5.39-38,9-56.6,2.53-13,5.14-26.44,7-39.72,1-7.3,1.6-14.66,2.13-21.78.58-7.73,1.18-15.72,2.41-23.63,2.86-18.35,6.07-34.62,9.82-49.75.95-3.8,2.88-7.85,5.57-8.26,2.46,3.53,2.87,8.39,3,12.72,1,25.41-3.12,51.1-7.14,75.94C1267.77,724.18,1265.32,739.36,1263.94,754.41Z"/><path class="cls-1" d="M1444.86,615.68c2.9-13.45,6.53-27,10.05-40.09,2.43-9.06,4.95-18.44,7.21-27.73,16.85-69.39,21.2-141.65,25.4-211.54L1500,128.16c2.51-41.91,5.09-85,1.84-127.67h-4.11c3.27,42.52.7,85.56-1.82,127.43l-12.51,208.16c-4.19,69.7-8.53,141.78-25.3,210.82-2.24,9.24-4.75,18.59-7.18,27.63-3.53,13.15-7.18,26.74-10.09,40.29-22.12,102.73-4.09,212,11.82,308.48L1497.86,1191H1502l-45.28-268.41C1440.87,826.55,1422.91,717.66,1444.86,615.68Z"/><path class="cls-1" d="M1166.4,683.92c1.94-21.19,5.16-42.5,8.27-63.1,2.87-19.05,5.85-38.76,7.81-58.35,3.36-33.41,3.84-67.47,4.31-100.41l1.68-117.63c.48-33.8,1-68.75-2.55-103-1.36-13.14-3.33-26.4-5.24-39.23-2.25-15.14-4.58-30.79-5.89-46.27-1.86-22-1.76-44.59-1.67-66.46.12-29.38,24.45-59.79,19.83-89.21h-4.14c4.67,29.31-19.65,59.78-19.78,89.19-.09,22-.19,44.66,1.69,66.83,1.32,15.6,3.66,31.32,5.92,46.52,1.9,12.78,3.86,26,5.21,39,3.51,34,3,68.87,2.53,102.56L1182.7,462c-.47,32.86-1,66.83-4.28,100.06-2,19.49-4.93,39.14-7.79,58.15-3.12,20.66-6.35,42-8.3,63.34-2,21.55-3,43.5-3.94,64.73-1.33,29.18-2.7,59.35-6.64,88.74-.31,2.35-1,5.22-2.79,5.62a3.83,3.83,0,0,1-3.39-.86c-3.58-2.8-12.07-16.36-13.41-81.54l0-1.81c-1.34-50.61-3.49-100.08-14.89-149-3.59-15.38-8.14-30.75-12.54-45.62-2.78-9.4-5.66-19.11-8.26-28.72A631.3,631.3,0,0,1,1075,344.64c.94-23.44,3.34-54.07,13.55-83.16,2.7-7.68,6-15.32,9.13-22.72,4-9.44,8.21-19.2,11.29-29.22,4.48-14.61,6.68-29.89,8.81-44.66,7.75-53.86-5.25-109.34-11.1-164.39h-4.12c5.89,54.7,18.9,110.07,11.17,163.8-2.1,14.62-4.28,29.74-8.67,44.05-3,9.81-7.14,19.47-11.14,28.81-3.19,7.46-6.49,15.17-9.23,23-10.39,29.59-12.82,60.62-13.77,84.34a635,635,0,0,0,21.57,191.71c2.61,9.65,5.49,19.39,8.28,28.81,4.38,14.81,8.92,30.13,12.48,45.39,11.32,48.52,13.45,97.77,14.78,148.16l0,1.78c.69,33.83,3.86,76,15,84.69a8.15,8.15,0,0,0,5,1.82,8.35,8.35,0,0,0,1.77-.2c3.23-.74,5.23-3.79,5.94-9.07,4-29.56,5.34-59.83,6.67-89.1C1163.44,727.28,1164.43,705.38,1166.4,683.92Z"/><path class="cls-1" d="M1134,204.84c-3.57,23.66-12.1,46.68-20.35,69-8.82,23.83-18,48.46-21.13,74.11-5.77,46.54,8.22,92.41,21.75,136.76,10.62,34.85,21.62,70.88,23.09,107.2l.12,3.28c.48,13.55,1,28.91,11,38.91l1.4,1.41,1.44-1.36c8.39-7.88,9.38-20.13,9.66-31,.39-15.19-.49-30.8-1.33-45.9-1.42-25.33-2.89-51.53,1.59-76.4,2-11.12,2.72-22.56,3.42-33.63.53-8.57,1.08-17.43,2.23-26,.52-3.82,1-7.63,1.59-11.46,2.61-18.47,5.3-37.57,4.74-56.65-.46-15.55-3.08-31.1-5.61-46.14-.86-5.1-1.72-10.19-2.5-15.3a500.3,500.3,0,0,1-5.7-76c0-9.87-.82-19.62-1.62-29.05s-1.64-19.12-1.59-28.75c0-8.95.13-17.9.22-26.84.39-41,2.5-84.66-1.42-126.46-.14-1.53-.29-3-.44-4.49h-4.12c.17,1.59.33,3.21.49,4.87,3.9,41.59,1.79,85.1,1.4,126q-.13,13.43-.22,26.86c-.05,9.81.79,19.63,1.6,29.12s1.62,19,1.61,28.69a503.45,503.45,0,0,0,5.75,76.62c.78,5.12,1.64,10.24,2.5,15.36,2.51,14.9,5.11,30.31,5.56,45.58.55,18.73-2.12,37.66-4.7,56-.54,3.83-1.08,7.66-1.59,11.49-1.17,8.75-1.72,17.68-2.27,26.32-.68,11-1.39,22.28-3.35,33.16-4.56,25.35-3.08,51.79-1.65,77.36.84,15,1.71,30.54,1.32,45.57-.23,9.34-1,19.74-6.93,26.62-7.49-8.88-8-22-8.42-34.62l-.12-3.31c-1.49-36.85-12.56-73.13-23.26-108.22-13.41-44-27.27-89.39-21.6-135.07,3.12-25.17,12.16-49.58,20.91-73.19,8.32-22.46,16.92-45.69,20.55-69.76,2.26-15,2.6-30.35,2.92-45.19L1130,0H1126l10.93,160.17C1136.56,174.88,1136.23,190.1,1134,204.84Z"/><path class="cls-1" d="M1139.68,234.22c-7,13.84-10.57,29.57-14,44.78-1.4,6.12-2.84,12.45-4.46,18.44a257.93,257.93,0,0,0-9.06,66.56c-.09,22.05,2.56,45.28,8.34,73.09,1.47,7.05,1.57,14.38,1.68,21.46.13,9.48.27,19.27,3.65,28.63,1.37,3.8,5.22,12.66,11.25,12.66a6.54,6.54,0,0,0,.89-.07c2.43-.38,4.59-2.24,6.42-5.55,2.27-4.12,2.47-9.76,2.66-15.22a63,63,0,0,1,.54-7.45c2.14-12.66,2.5-25.38,2.68-37.35,0-30.14-.57-60.75-1.13-90.34-.58-30.95-1.18-62.94-1.12-94.42,0-4.14,0-11.86-5.22-15.91l-2-1.52Zm4.21,15.21c-.05,31.52.55,63.54,1.13,94.5.55,29.58,1.13,60.17,1.13,90.24-.18,11.78-.54,24.32-2.63,36.7a63.66,63.66,0,0,0-.6,8c-.17,5-.35,10.12-2.15,13.39-1.15,2.07-2.38,3.31-3.46,3.48l-.27,0c-1.83,0-4.93-3.12-7.41-10-3.14-8.71-3.27-17.74-3.41-27.3-.1-7.27-.21-14.79-1.75-22.23-5.73-27.53-8.35-50.48-8.26-72.25a253.7,253.7,0,0,1,8.91-65.5c1.65-6.07,3.1-12.44,4.51-18.6,3.18-14,6.47-28.39,12.39-41.14C1143.73,241.61,1143.9,245.69,1143.89,249.43Z"/><path class="cls-1" d="M1122.12,355.92c.27,4.9.87,9.87,1.46,14.68.91,7.54,1.85,15.35,1.52,22.88-.06,1.3,1,23.65,5.27,28.08a3.41,3.41,0,0,0,2.49,1.15,3.8,3.8,0,0,0,2.92-1.57,4.69,4.69,0,0,0,.9-3.13c0-6.87-.15-13.67-.3-20.25-.34-15.12-.67-29.39.68-44.49.94-10.11,1.71-21.83-1.06-33.11l-.64-2.58-2.33,1.28c-3.25,1.78-5.87,5-7.8,9.49C1121.43,337.27,1121.63,347.26,1122.12,355.92Zm6.87-26a18.11,18.11,0,0,1,3.69-5.76c1.82,9.74,1.13,19.86.3,28.71-1.36,15.33-1,29.72-.69,45,.14,6.41.29,13,.3,19.69-2-4.83-3.55-20.81-3.41-23.88.35-7.87-.61-15.84-1.55-23.56-.57-4.74-1.16-9.64-1.43-14.4C1125.74,347.49,1125.53,338.07,1129,330Z"/><path class="cls-1" d="M1020.93,1129.76a123.76,123.76,0,0,1-4.79-11.76c-2.46-7.44-3.73-15.47-5-23.24-.76-4.82-1.56-9.82-2.63-14.66a239.14,239.14,0,0,0-7.72-25.64l-14.71-42.91c-.22-.64-.64-2.16-1.21-4.18-5.09-18.3-7.71-24.94-10.36-26.35a2.82,2.82,0,0,0-2.23-.21,5.83,5.83,0,0,0-3.19,3.44c-4.4,10.19-2.6,21.28-.87,32,.59,3.67,1.2,7.47,1.54,11.13,1.07,11.64-1.28,23.17-3.56,34.33-1,4.92-2,10-2.78,15.06-.79,5.42-1.71,10.87-2.59,16.13-2.13,12.62-4.32,25.67-4.94,39a419.52,419.52,0,0,0,1.71,59.1h4.11a415.81,415.81,0,0,1-1.74-58.91c.61-13.12,2.78-26,4.89-38.54.89-5.29,1.81-10.75,2.61-16.21.72-5,1.75-10,2.74-14.85,2.33-11.44,4.75-23.28,3.62-35.52-.35-3.79-1-7.66-1.58-11.4-1.71-10.62-3.33-20.64.6-29.74q.15-.35.27-.57c2.39,3.7,6.41,18.14,7.81,23.16.6,2.14,1,3.75,1.28,4.42l14.71,42.9a234.86,234.86,0,0,1,7.6,25.21c1,4.72,1.83,9.65,2.58,14.42,1.26,7.92,2.57,16.12,5.12,23.87a128.06,128.06,0,0,0,5,12.15c1.42,3.18,2.89,6.48,4.1,9.77,5.52,15.11,7.52,32.85,8.68,49.84h4.09c-1.17-17.36-3.2-35.56-8.93-51.24C1023.88,1136.37,1022.38,1133,1020.93,1129.76Z"/><path class="cls-1" d="M1009,1159c-3.52-21.16-7.5-45.14-18.4-63.09a18.22,18.22,0,0,0-4.1-5.17,7.54,7.54,0,0,0-7.61-1.29l-.4.17-.29.33c-3.14,3.5-4.14,8.18-4.84,12.3-3.2,19.08-3.39,33.61-.57,45.73,2.18,9.41,2.46,18.89,2.76,28.92.11,3.8.22,7.72.45,11.61.05.83.12,1.66.17,2.49h4.1c-.06-.91-.13-1.82-.19-2.73-.22-3.83-.34-7.72-.44-11.49-.29-9.79-.59-19.92-2.87-29.72-2.69-11.58-2.49-25.6.63-44.13.57-3.39,1.35-7.19,3.51-9.87a3.92,3.92,0,0,1,3.06.9,14.87,14.87,0,0,1,3.14,4.07c10.49,17.28,14.4,40.85,17.85,61.64.79,4.73,1.56,9.36,2.38,13.82,1.08,5.81,2.06,11.66,3,17.51h4.14c-1-6.1-2-12.19-3.11-18.25C1010.56,1168.36,1009.8,1163.75,1009,1159Z"/><path class="cls-1" d="M999,1164.34c-.87-4.45-1.44-9.21-2-13.81-1.23-10.41-2.51-21.17-7.34-30.63-1.13-2.22-2.88-3.26-4.67-2.8a4,4,0,0,0-1.79,1.09c-3,3-2.94,7.33-2.64,11.18,1.34,17.34,3.33,35,5.25,52q.54,4.81,1.06,9.63H991c-.38-3.36-.74-6.72-1.12-10.09-1.92-17-3.9-34.63-5.23-51.9-.22-2.79-.31-5.88,1.13-7.71a3.36,3.36,0,0,1,.25.41c4.49,8.82,5.73,19.21,6.92,29.26.56,4.67,1.14,9.51,2,14.11,1.31,6.71,3.13,13.37,4.89,19.82.55,2,1.11,4,1.65,6.1h4.22c-.63-2.41-1.28-4.81-1.92-7.18C1002.1,1177.49,1000.3,1170.9,999,1164.34Z"/><path class="cls-1" d="M47,482.06a151.46,151.46,0,0,0-.54-17.38c-.14-1.23-.26-2.57-.38-4-.51-5.69-1.08-12.15-3-16.83-.69-1.68-2.17-3.56-4.27-3.8a3.63,3.63,0,0,0-1.78.24c-2.22.86-2.67,3.29-2.87,4.32-.67,3.58-1.44,7.2-2.22,10.86-2.24,10.5-4.55,21.37-4.7,32a272.47,272.47,0,0,0,1.26,34.22,242,242,0,0,1,.94,27.16c0,5.43,0,11,.17,16.65.68,17.71.66,32.1-.07,45.28a12.63,12.63,0,0,0,.53,5.44,5.86,5.86,0,0,0,4.6,3.78,4.52,4.52,0,0,0,1,0c4.61-.51,5.85-7.58,6.51-11.38l.11-.63a358.58,358.58,0,0,0,5.1-41.43C49,542,48,517,47.09,492.86,47,489.29,47,485.62,47,482.06Zm-3.66,84.25a354.56,354.56,0,0,1-5,41l-.12.67c-1.27,7.28-2.56,8-2.93,8s-1.11-.53-1.38-1.22a9.34,9.34,0,0,1-.26-3.72c.74-13.3.77-27.81.08-45.66-.21-5.52-.19-11.09-.18-16.48a241.85,241.85,0,0,0-1-27.62,270,270,0,0,1-1.24-33.71c.15-10.23,2.42-20.9,4.62-31.21.78-3.69,1.56-7.35,2.24-10.95a6.45,6.45,0,0,1,.3-1.16,3.31,3.31,0,0,1,.82,1.19c1.69,4.11,2.23,10.24,2.72,15.64.12,1.44.24,2.81.38,4.06A149.26,149.26,0,0,1,42.92,482c0,3.6-.06,7.32.09,11C44,517.07,44.92,541.93,43.35,566.31Z"/><path class="cls-1" d="M115,26.19a94.89,94.89,0,0,1-1.14,11.18A86.87,86.87,0,0,0,112.64,50c0,17.46-2.22,36-7.2,60.19-.59,2.84-1.39,5.55-2.16,8.16-1.9,6.47-3.7,12.59-2.4,20.22.28,1.6,1.09,4.47,3.46,5.76a4.83,4.83,0,0,0,2.33.58,6.32,6.32,0,0,0,2.47-.54c3-1.31,4.08-5,4.84-7.7.17-.6.33-1.17.5-1.65,3.42-9.76,6.48-19.43,9.07-28.72,2.75-9.88,5.19-20,7.24-30,.33-1.6.68-3.22,1-4.85,1.78-8.32,3.62-16.92,3.49-25.33a119.16,119.16,0,0,1,.81-13.6c.48-4.83,2.62-13.63,2.48-18.64A60.71,60.71,0,0,0,137.12.49H133A58.89,58.89,0,0,1,134.52,14c.12,4.76-2,13.42-2.46,18.13a123.33,123.33,0,0,0-.84,14.07c.13,7.94-1.66,16.31-3.4,24.4-.35,1.65-.7,3.28-1,4.89-2,9.94-4.45,19.94-7.18,29.72-2.57,9.21-5.59,18.79-9,28.46-.2.56-.38,1.21-.58,1.9-.54,1.91-1.27,4.51-2.52,5.05-.81.35-1.13.18-1.23.12a4.19,4.19,0,0,1-1.38-2.85c-1.14-6.7.45-12.11,2.29-18.37.8-2.7,1.62-5.48,2.24-8.5,5-24.45,7.29-43.26,7.28-61a85,85,0,0,1,1.14-12A96.13,96.13,0,0,0,119,26.29c.2-8.57-2.71-17.21-3.13-25.8h-4.1C112.23,9.05,115.14,17.66,115,26.19Z"/><path class="cls-1" d="M1635.14,1072.93c-3.8,1-7.34,11.32-10.53,30.63a399.69,399.69,0,0,0-4.91,64.63c0,3.42.64,14.75,1.15,23.36h4c-.51-8.6-1.15-20-1.16-23.38-.13-47,7.47-83,11.64-90.23-.27,2.34-1.09,6.9-1.9,11.33-2.14,11.73-5.36,29.46-5.71,44.11-.51,21.55-.29,44,.51,58.17h4c-.79-14-1-36.85-.52-58.07.34-14.34,3.53-31.88,5.64-43.49s2.42-13.73,1.67-15.06C1637.68,1072.55,1635.86,1072.74,1635.14,1072.93Z"/><path class="cls-1" d="M990.31,58.82a4.94,4.94,0,0,0,2.55.7,6.86,6.86,0,0,0,3.83-1.31c5.75-3.83,11.21-41.91,10.09-50.48-.39-3-.78-5.6-1.12-7.73h-4.06c.37,2.21.79,5,1.22,8.25,1.19,9.13-5.06,44-8.35,46.63-.52.35-1.49.88-2.09.52-.32-.2-3.09-2.31-1.57-16.3,1.66-15.3.45-34.29.09-39.1h-4c.3,4.11,1.58,23.55-.06,38.67C985.59,50.05,986.73,56.65,990.31,58.82Z"/><path class="cls-1" d="M985.62,99.44a4.81,4.81,0,0,0,1.1.14c4.55,0,6.78-7.77,10-19.11,2.24-7.81,5-17.54,9.06-26.09,7-14.78,9.56-41.15,8.47-54.38h-4c1.14,12.6-1.32,38.35-8.07,52.67-4.18,8.85-7,18.75-9.3,26.7-1.81,6.31-4.55,15.86-6.33,16.19-3.3-.82-7.57-16.9-6.66-43.83.74-22,0-51,0-51.29l-4,.1c0,.29.74,29.2,0,51.05C975.86,53.43,974.52,96.68,985.62,99.44Z"/><path class="cls-1" d="M45.17,956C58,898.83,70.07,844.87,72,816.07,76.45,750.08,70.4,520,67.59,479c-3.25-47.46-13.39-116.22-28.7-162.84A339.89,339.89,0,0,1,26.52,267.9c-2-10.67-3-16-8.41-20.06-2.12-1.58-4.12-2-5.95-1.26C7.44,248.47,6,257.33,3.73,270.73c-1,6-2.12,12.66-3.65,19.1v9.06l1.5.49c3-9.14,4.62-19.16,6.09-28,1.56-9.4,3.34-20,6-21.1.56-.23,1.44.29,2.07.76,4.17,3.1,5,7.34,6.87,17.58a342.57,342.57,0,0,0,12.5,48.78C50.29,363.7,60.36,432.06,63.6,479.28,66.41,520.21,72.45,749.94,68,815.8c-1.92,28.49-14,82.31-26.75,139.29-16.45,73.38-33.45,149.23-33.12,188-.84-.7-3.91-5.38-1.49-36.36,1.49-19.18,4.83-45.32,9.64-75.59,10.77-67.65,13.64-158.48,7.88-249.22-1.74-27.54-3.87-57.18-6.12-88.55C13,623.38,7.83,551,7,501.85c-.83-49.59,6.06-102.17,10.19-133.59,1.8-13.72,3-22.78,2.9-26.56-.11-4.75.06-12,.25-19.61.85-34.08.26-40.61-3.66-41.09-2.34-.28-4.16,1.61-7.58,12.74-2.39,7.79-5.42,19.8-9,35.75v5.86l2.65.59c7.57-34.38,11.4-45.81,13.22-49.53,1.09,6.12.65,24.2.37,35.58-.2,7.7-.37,15-.26,19.8.08,3.47-1.16,12.9-2.87,25.95C9.09,399.27,2.17,452,3,501.92c.83,49.24,6,121.69,11.06,191.76,2.25,31.36,4.37,61,6.12,88.51,5.74,90.46,2.88,181-7.84,248.34-4.83,30.38-8.18,56.62-9.68,75.91-2.49,32,.5,38.2,3.38,40.08a4.15,4.15,0,0,0,2.26.67,5.48,5.48,0,0,0,2.95-1l.93-.61,0-1.11C11.4,1106.67,28.57,1030.05,45.17,956Z"/><path class="cls-1" d="M55.18,444.39a554.31,554.31,0,0,0-7.85-55.62c-6.06-30.26-10.28-30.23-12.33-30.2-3.19,0-6.78,2.71-9,34.3-1.43,13.09-3,24.51-4.57,35.56-5.11,36.46-9.51,67.95-6.24,141.3,1.89,42.26,6.05,93.32,10.07,142.7,5.13,63.05,10,122.6,9.71,158.26-.24,30.51,1.92,33.13,4.77,33.39a2.75,2.75,0,0,0,.4,0c2.28,0,4.52-2.24,9-20.76C51.68,872.65,54.67,857.72,58,839c4.26-24.06,2.17-54.91-.06-87.57-2.4-35.35-4.89-71.9,1.53-98.43C69,613.61,59.64,494,55.18,444.39ZM54,751.69c2.21,32.4,4.29,63,.11,86.59-7.79,43.88-11.93,56.79-13.76,60.57-.64-2.73-1.45-9.81-1.31-28.13.27-35.84-4.59-95.48-9.73-158.62-4-49.34-8.17-100.36-10-142.55-3.26-73,1.12-104.3,6.2-140.57C27,417.89,28.56,406.43,30,393.26v-.07c1.7-24.5,4.19-29.48,5.07-30.48.87.83,4.14,5.35,8.67,28.55C46.81,407,49.6,427,51.2,444.75,55.64,494.15,65,613.25,55.58,652,49,679.17,51.53,716,54,751.69Z"/><path class="cls-1" d="M185.17,1020.05c-4.56-34.24-9.72-73-13.41-108-5.47-51.68-11.34-124-18.14-207.68-2.73-33.6-5.55-68.35-8.51-103.69-5.1-61-4.78-108.91,1-155.34,5.31-42.43,15.39-85.19,33.7-143,19.06-60.17,59.76-242.92,50.62-273.89-3.17-10.73-5.39-14.45-8.53-14.2-5.12.4-6.83,11.74-12,51-.59,4.47-1.2,9.19-1.86,14.13-3.2,24-10.55,44-19.07,67.25-10.74,29.26-22.91,62.44-31.27,114.33-5.8,35.93-11.71,53.94-16.45,68.4-7.9,24.07-13.12,40-11.84,110.67,2,110,9.73,143.53,10.52,146.69.34,4.69.71,9.44,1.12,14.28,3,35.34,5.77,70.08,8.5,103.68,6.8,83.73,12.67,156,18.15,207.78,3.7,35,8.86,73.8,13.42,108.07,5.12,38.49,9.54,71.73,11.25,93.64a746.79,746.79,0,0,1,2,76.75l4,.15a757.59,757.59,0,0,0-2-77.21C194.72,1091.89,190.29,1058.6,185.17,1020.05Zm-47.54-485c-1.75-22.27-3.38-53.15-4.14-95.07-1.27-70,3.86-85.67,11.64-109.35,4.79-14.6,10.75-32.77,16.6-69,8.3-51.52,20.4-84.5,31.08-113.6,8.59-23.43,16-43.67,19.27-68.09q1-7.42,1.86-14.14c2.94-22.43,5.72-43.67,8.29-47.24.65.79,2.09,3.27,4.4,11.07C235.59,60,195,241.35,176,301.2c-18.38,58-28.5,101-33.85,143.68A629,629,0,0,0,137.63,535.08Z"/><path class="cls-1" d="M174.38,497.17c1.49-90.6,9.16-163.38,20.52-194.68C223.7,223.13,250.55,52.05,246.33.33l-4,.32c4.19,51.38-22.55,221.5-51.21,300.48-11.5,31.69-19.26,105-20.76,196-1.45,88.1,3.38,171.37,12.61,217.31,19.41,96.64,55.07,416.16,59,477.14h4c-3.91-60.76-39.65-381.1-59.1-477.93C177.74,667.94,172.94,585,174.38,497.17Z"/><path class="cls-1" d="M650.17,1067.11c-7.1-45.12-4.58-90.86-2.36-131.22,2.35-42.62,4.57-82.88-4.84-114.68-18.1-61.2-38.93-153.7-53-218C584.75,579.56,577,527,572.35,467.69c-.21-2.95-.86-12-4.8-12.55-2.64-.41-4.16,2.55-5.31,5.49-2.89,7.41,1.12,75,6.49,133.45,3.53,38.4,13.07,131.65,25.32,168.11,1.19,3.56,2.4,7.12,3.6,10.67,18.48,54.62,37.59,111.09,26.43,180.33-12.11,75.12-2,205.43,3.07,238.36h4c-5-31.74-15.28-162.57-3.16-237.72,11.31-70.22-8-127.18-26.59-182.25-1.2-3.55-2.41-7.11-3.6-10.66-12.11-36.06-21.6-128.95-25.12-167.21-6.54-71-8.8-126.37-6.75-131.62a17,17,0,0,1,1-2.19,36.34,36.34,0,0,1,1.35,7.47l0,.62c4.69,59.54,12.45,112.29,17.68,136.11,14.11,64.32,35,156.93,53.1,218.24,9.21,31.14,7,71.06,4.68,113.33-2.24,40.56-4.77,86.53,2.39,132.06,10,63.8,11.74,82.33,13.54,101.94.6,6.53,1.22,13.29,2.15,21.88h4c-1-8.76-1.59-15.62-2.2-22.24C661.93,1149.63,660.22,1131,650.17,1067.11Z"/><path class="cls-1" d="M408.54,45c.69,13.29,1.41,27,3.85,40.38,1.84,10.07,4.34,22.3,6.76,34.14,4.49,22,10.63,52,9.35,55.53a6.08,6.08,0,0,1-1.29,2,13.74,13.74,0,0,1-2.49-2l-.58-.53c-1.09-1-1.92-5-2.81-9.25-1.28-6.1-3-14.46-7-23-13.4-28.44-20.53-43.57-24.29-56,6.76,24.49,16.08,48,20.67,57.72,3.82,8.1,5.44,15.87,6.74,22.11,1.2,5.74,2,9.53,4,11.39l.56.52c1.86,1.7,3.38,3.09,5.22,3.09a4.23,4.23,0,0,0,.7-.06c2-.38,3.29-2.41,4.15-4.14,1.84-3.68-1.33-20.54-9-58.12-2.42-11.81-4.91-24-6.75-34-2.39-13.1-3.1-26.71-3.79-39.87-.58-11.11-1.18-22.61-2.81-33.44a96.15,96.15,0,0,1-1.07-11l-4,.16a99.62,99.62,0,0,0,1.12,11.42C407.37,22.54,407.93,33.43,408.54,45Z"/><path class="cls-1" d="M382.05,38.41c-.11,12,2.55,26.9,6.37,41.79-2.65-11.54-2.55-22.19-2.37-41.75A215,215,0,0,1,387.3,14.9c.6-5.63.73-7.68-1.1-14.9h-4.12c2,7.58,1.81,9.11,1.24,14.47A218,218,0,0,0,382.05,38.41Z"/><path class="cls-1" d="M392.09,22.26c-.1,5.42-.18,9.33,2.32,11.21a6,6,0,0,0,3.59,1.4,3.84,3.84,0,0,0,2-.58c2.48-1.53,4.8-6.21.67-28.93L399.8,0h-1.21l-2.77.47.95,5.58c4.11,22.58,1.29,24.76,1.23,24.82s-.37,0-1.19-.6-.78-4.52-.72-7.93c.12-5.8.27-13.65-2.38-22.34h-4.2C392.37,8.54,392.21,16.47,392.09,22.26Z"/><path class="cls-1" d="M1236.62,1142.51c-.56-12.42-9.73-35.06-20.35-61.27-12.53-31-28-69.22-34.12-102.75l.16,0c-10.72-66.64-2-134.12,9.54-209.09,10.91-70.7,22.47-139.59,43.79-205.14,3-9.29,6.29-18.68,9.46-27.77,8.52-24.45,17.33-49.73,22.16-75.64,12.56-67.35-1.76-136.25-15.6-202.87-3.24-15.57-6.58-31.66-9.51-47.42C1225.63,121.73,1255.56,52.07,1280.77,0h-4.56c-24.84,52.66-54.58,122.6-38.08,211.29,2.94,15.79,6.28,31.91,9.52,47.5,13.77,66.24,28,134.73,15.59,201.29-4.78,25.61-13.53,50.74-22,75-3.18,9.11-6.46,18.53-9.49,27.86-21.41,65.84-33,134.9-43.94,205.77-11.42,74.06-20,140.86-10,207l-.15,0c5.7,34.76,21.92,74.81,35,107,10.48,25.87,19.53,48.21,20.06,60,.29,6.54.63,12.23.94,17.25.83,13.75,1.36,22.71-.15,31.61h4.06c1.44-9.08.91-18.14.08-31.86C1237.26,1154.69,1236.91,1149,1236.62,1142.51Z"/><path class="cls-1" d="M1274.34,1033.09h0c0-1.38.12-2.76.19-4.14q.2-3.36.42-6.25c0-.68.1-1.36.16-2.05,2.46-27.62,9.7-54.94,16.74-81.48,3.09-11.65,6.28-23.69,9-35.6,18.55-80.36,19.14-163.92,19.7-244.74.53-75.71,1.08-154-6.59-230.69-2.29-22.9-5.36-46.09-8.32-68.51-3.47-26.21-7.06-53.33-9.42-80.09-8.25-93.76,14.25-187.45,34.47-279h-4.19C1306.39,92.22,1283.94,186,1292.2,279.9c2.37,26.85,6,54,9.43,80.27,3,22.39,6,45.54,8.31,68.37,7.65,76.48,7.1,154.66,6.57,230.27-.56,80.59-1.14,163.92-19.59,243.84-2.74,11.85-5.92,23.86-9,35.47-6.09,23-12.34,46.51-15.55,70.43h0c0,.08-.19,1.38-.44,3.66-.83,6.88-1.42,13.8-1.65,20.74h.08c-.9,20-.45,48.68,6.72,72.24.1.36,9.56,36.14,7.47,55.7-1.2,11.29-5.4,22.87-8.74,30.66h4.37c3.32-8,7.16-19.11,8.35-30.24,2.16-20.28-7.18-55.65-7.6-57.22C1273.88,1081,1273.45,1052.74,1274.34,1033.09Z"/><path class="cls-1" d="M1434.13,1038.59l-.18,0c-9.45-41.58-19-84.39-25.09-126.86-22.75-157.7-.24-319,21.53-475,15.2-108.94,30.93-221.59,31.33-332.77.09-24.43,3.2-45.24,2.57-69.24C1464,25,1462.94,10.16,1462.7,0h-4.09c.24,10.2,1.34,25.06,1.59,34.87.63,24-2.48,44.75-2.57,69.13-.4,110.9-16.1,223.41-31.29,332.22-21.81,156.26-44.36,317.85-21.53,476.12,6.57,45.55,17,91.39,27.09,135.72l.27-.07c3.37,13.56,8.25,27.93,15,46.62,8.19,22.52,12.94,62.59,12.49,79.22-.19,6.79-.56,12.94-.92,17.72h4c.36-4.8.72-10.89.9-17.61.41-14.84-3.6-55.63-12.72-80.7C1442.79,1070.74,1437.41,1054.58,1434.13,1038.59Z"/><path class="cls-1" d="M1548.45,1076.68c-.54-4.06-1.1-8.3-1.72-12.85l-.15,0c-3.79-25.25-9.3-50.34-14.67-74.77-4.36-19.87-8.88-40.43-12.4-60.78-20.6-118.85-9.84-240.79.56-358.72l13.79-156.25c2-22.49,4.53-45.41,7-67.56,3.66-32.95,7.46-67,9.48-100.53,1.59-26.28.79-52.51,0-77.87-.62-20.47-1.27-41.64-.65-62.64.58-19.58-7.31-39.39-2.44-58.22,1.84-7.12,3.74-14.48,5.38-21.77q2.76-12.22,4.63-24.59h-4.14q-1.83,11.9-4.48,23.69c-1.63,7.23-3.52,14.56-5.35,21.65-4.92,19.05,2.91,39.08,2.31,59.12-.62,21.13,0,42.36.66,62.89.77,25.27,1.57,51.39,0,77.49-2,33.41-5.81,67.43-9.47,100.33-2.46,22.18-5,45.11-7,67.65L1516,569.22c-10.42,118.19-21.21,240.4-.52,359.78,3.54,20.44,8.06,41,12.44,61,6.69,30.45,13.61,61.93,17.11,93.37l.27,0c2.36,17.67,4.58,33.08,9.5,56.85,3,14.36,1.15,34.24-1.64,51.4h4.07c3.57-22.16,4.08-39.71,1.49-52.21C1553.27,1113,1551.15,1097,1548.45,1076.68Z"/><path class="cls-1" d="M1618,1110.93c.35-9.64,3.18-21.07,6.46-34.3,3.77-15.24,8.41-34.05,10.69-56.25,11.41-88.29,22.07-179.19,11-268.36-3.6-29-7.47-55.09-11.2-80.29-6.61-44.51-12.84-86.56-16.63-138-4.72-64.07,7.8-159.46,28.5-217.16,12.8-35.66,24.25-74.39,37-107.12V198.37c-14.37,36.27-26.81,77.62-40.86,116.8-20.87,58.15-33.49,154.28-28.74,218.84,3.8,51.61,10,93.73,16.66,138.32,3.74,25.18,7.6,51.22,11.2,80.19,10.89,87.65.63,177.2-10.59,264.27h0a1.49,1.49,0,0,0,0,.21q-1.1,8.46-2.19,16.87l.13,0c-2.4,15.75-5.77,29.38-8.84,41.78-3.33,13.45-6.2,25.06-6.57,35.11-.13,3.54-.3,7.19-.46,11-.86,19.3-1.82,41.12.23,69.82h4c-2.06-28.61-1.1-50.39-.25-69.64C1617.66,1118.13,1617.82,1114.48,1618,1110.93Z"/><path class="cls-1" d="M1361,1168.22c-2.78-11.35-4.77-16.67-11.23-29.94a111.85,111.85,0,0,1-10.49-33.4h0c0-.13,0-.26-.07-.39-.32-2-.62-3.94-.91-5.92s-.6-4-.93-6.06l-.24,0a634.62,634.62,0,0,1-7.68-71.23c-.87-17.21-3.43-31.18-8.3-45.3-1-3-2.93-4.6-5.13-4.28-1.91.28-3.23,1.85-3.93,4.69-2.67,11-3.18,22.46-3.68,33.57-.18,4.17-.38,8.48-.68,12.66-1.86,25.48-3.08,52-3.72,81.1-.19,8.73-.39,17.76,1.34,26.72l.12,0c1,5.59,1.89,9.82,2.7,13.61,1.18,5.46,2.19,10.17,3.09,17.26s.73,14.29.32,29.77v.46h4v-.35c.41-15.7.6-22.86-.35-30.38-.92-7.26-2-12-3.14-17.6-1-4.43-2-9.46-3.21-16.59h0c-1.09-7.56-.92-15.29-.75-22.79.64-29,1.85-55.48,3.71-80.89.3-4.24.5-8.58.69-12.78.48-10.91,1-22.19,3.57-32.78a7.11,7.11,0,0,1,.5-1.45,5,5,0,0,1,.72,1.41c4.73,13.73,7.23,27.35,8.08,44.17a639.18,639.18,0,0,0,9.89,84.1h.08a117.07,117.07,0,0,0,10.82,34.42c6.38,13.11,8.22,18,10.94,29.14.55,2.23,1.44,6.5,2.48,11.45.73,3.48,1.54,7.34,2.32,10.93H1366c-.83-3.81-1.71-8-2.5-11.75C1362.41,1174.81,1361.51,1170.51,1361,1168.22Z"/><path class="cls-1" d="M1268.23,107.5c-2.19,34.73.94,40,4.64,40.55a3.81,3.81,0,0,0,.59,0c2.32,0,5.36-2.2,10.07-14.44a250.47,250.47,0,0,0,9.37-32.08c4.67-20.33,6-27.76,7.26-34.31,1.28-6.85,2.38-12.77,6.72-31.11,2.55-10.79,8-33.76,8.55-36.16h-4.22c-1.19,5-6,25.29-8.32,35.22-4.37,18.43-5.47,24.4-6.76,31.3-1.21,6.52-2.58,13.9-7.22,34.14-6,26-12.61,41.41-15.4,43.21-.74-1.1-3-6.9-1.19-36.11,2.58-40.95,15.06-63.94,24.17-80.72,5.6-10.33,10-18.48,9.63-26.83l-4.1.2c.35,7.2-3.63,14.53-9.13,24.67C1283.59,42.2,1270.87,65.65,1268.23,107.5Z"/><path class="cls-1" d="M1319.47,161.37a784,784,0,0,0-10.16,104.82c-.62,24.54,0,57.95,6.64,77.76,4.23,12.68,8.89,19.09,13.87,19.09a6,6,0,0,0,.94-.07c7.47-1.21,12-17.21,12-42.8.06-28.89,25.09-103.65,43.38-158.24,7.34-21.93,13.69-40.88,17-52.61C1412.15,77.41,1419,26,1415.83,0h-4.14c2.71,21.69-1.72,70-12.49,108.21-3.28,11.63-9.61,30.53-16.94,52.42-18.37,54.85-43.53,130-43.59,159.53-.05,27.24-5.28,38.23-8.56,38.76-2.13.34-6.09-3.71-10.27-16.27-10-30-8.41-107.63,3.68-180.61,4.25-25.63,9.77-49.35,14.65-70.29,8.28-35.56,15.44-66.27,13-91.75h-.5l-3.59.34c2.39,24.83-4.7,55.25-12.9,90.48C1329.29,111.82,1323.74,135.61,1319.47,161.37Z"/><path class="cls-1" d="M1343.1,143.67c-10.89,45.66-17.3,74-12.21,80.94a3.9,3.9,0,0,0,3.18,1.7,4.13,4.13,0,0,0,1.08-.15c14.23-3.71,51.37-104.71,55.33-137.07,4.06-33.1,2.54-42.48-2.51-73.57-.75-4.63-1.58-9.76-2.48-15.52h-1.1l-3,.47c.92,5.84,1.76,11,2.52,15.71,5,30.64,6.47,39.89,2.48,72.41-2,16.2-11.77,48.45-24.35,80.24-15,37.86-24.94,52.69-27.86,53.35h0c-4.23-5.77,4.47-42.26,12.88-77.56,7-29.16,14.84-62.21,17.8-86.85,4.28-35.58,2.78-49.13.68-57.77h-4.23c2.13,8.27,3.84,21-.52,57.28C1357.87,81.68,1350,114.61,1343.1,143.67Z"/></g></g></svg>